G04 EAGLE Gerber RS-274X export*
G75*
%MOMM*%
%FSLAX34Y34*%
%LPD*%
%INBottom Copper*%
%IPPOS*%
%AMOC8*
5,1,8,0,0,1.08239X$1,22.5*%
G01*
%ADD10C,0.177800*%
%ADD11C,0.800000*%
%ADD12C,0.609600*%
%ADD13C,0.304800*%


D10*
X166550Y19272D02*
X166461Y19270D01*
X166372Y19264D01*
X166284Y19255D01*
X166196Y19242D01*
X166108Y19225D01*
X166022Y19204D01*
X165936Y19180D01*
X165852Y19152D01*
X165768Y19121D01*
X165687Y19086D01*
X165606Y19048D01*
X165528Y19006D01*
X165451Y18961D01*
X165376Y18913D01*
X165304Y18861D01*
X165233Y18807D01*
X165165Y18749D01*
X165100Y18689D01*
X165037Y18626D01*
X164977Y18561D01*
X164919Y18493D01*
X164865Y18422D01*
X164813Y18350D01*
X164765Y18275D01*
X164720Y18198D01*
X164678Y18120D01*
X164640Y18039D01*
X164605Y17958D01*
X164574Y17874D01*
X164546Y17790D01*
X164522Y17704D01*
X164501Y17618D01*
X164484Y17530D01*
X164471Y17442D01*
X164462Y17354D01*
X164456Y17265D01*
X164454Y17176D01*
X166550Y19271D02*
X166653Y19269D01*
X166755Y19263D01*
X166857Y19253D01*
X166959Y19240D01*
X167060Y19222D01*
X167160Y19201D01*
X167260Y19176D01*
X167358Y19147D01*
X167455Y19114D01*
X167551Y19078D01*
X167646Y19038D01*
X167739Y18994D01*
X167830Y18947D01*
X167919Y18897D01*
X168006Y18843D01*
X168092Y18786D01*
X168175Y18726D01*
X168255Y18662D01*
X168333Y18596D01*
X168409Y18526D01*
X168482Y18454D01*
X168552Y18379D01*
X168619Y18301D01*
X168683Y18221D01*
X168744Y18139D01*
X168802Y18054D01*
X168856Y17967D01*
X168908Y17878D01*
X168955Y17788D01*
X169000Y17695D01*
X169040Y17601D01*
X169078Y17505D01*
X169111Y17408D01*
X165153Y15546D02*
X165088Y15610D01*
X165026Y15677D01*
X164966Y15746D01*
X164910Y15818D01*
X164857Y15891D01*
X164806Y15967D01*
X164759Y16045D01*
X164715Y16125D01*
X164674Y16206D01*
X164636Y16289D01*
X164602Y16374D01*
X164571Y16460D01*
X164544Y16547D01*
X164520Y16635D01*
X164500Y16723D01*
X164483Y16813D01*
X164471Y16903D01*
X164461Y16994D01*
X164456Y17085D01*
X164454Y17176D01*
X165153Y15546D02*
X169111Y10889D01*
X164454Y10889D01*
X159967Y12752D02*
X158104Y19271D01*
X159967Y12752D02*
X155310Y12752D01*
X156707Y14614D02*
X156707Y10889D01*
X151272Y9958D02*
X147547Y20202D01*
X142810Y18107D02*
X142880Y17958D01*
X142947Y17807D01*
X143010Y17655D01*
X143070Y17501D01*
X143126Y17346D01*
X143178Y17189D01*
X143226Y17032D01*
X143271Y16873D01*
X143312Y16713D01*
X143349Y16553D01*
X143382Y16391D01*
X143412Y16229D01*
X143437Y16066D01*
X143459Y15903D01*
X143477Y15739D01*
X143490Y15574D01*
X143500Y15410D01*
X143506Y15245D01*
X143508Y15080D01*
X142810Y18107D02*
X142781Y18184D01*
X142749Y18260D01*
X142714Y18334D01*
X142674Y18406D01*
X142632Y18476D01*
X142586Y18544D01*
X142537Y18610D01*
X142484Y18674D01*
X142429Y18735D01*
X142371Y18793D01*
X142311Y18848D01*
X142247Y18901D01*
X142181Y18950D01*
X142113Y18996D01*
X142043Y19039D01*
X141971Y19079D01*
X141897Y19115D01*
X141822Y19147D01*
X141745Y19176D01*
X141667Y19201D01*
X141587Y19222D01*
X141507Y19240D01*
X141426Y19253D01*
X141344Y19263D01*
X141262Y19269D01*
X141180Y19271D01*
X141098Y19269D01*
X141016Y19263D01*
X140934Y19253D01*
X140853Y19240D01*
X140773Y19222D01*
X140693Y19201D01*
X140615Y19176D01*
X140538Y19147D01*
X140463Y19115D01*
X140389Y19079D01*
X140317Y19039D01*
X140247Y18996D01*
X140179Y18950D01*
X140113Y18901D01*
X140050Y18848D01*
X139989Y18793D01*
X139931Y18735D01*
X139876Y18674D01*
X139823Y18610D01*
X139774Y18544D01*
X139728Y18476D01*
X139686Y18406D01*
X139647Y18334D01*
X139611Y18260D01*
X139579Y18184D01*
X139550Y18107D01*
X139480Y17958D01*
X139413Y17807D01*
X139350Y17655D01*
X139290Y17501D01*
X139234Y17346D01*
X139182Y17189D01*
X139134Y17032D01*
X139089Y16873D01*
X139048Y16713D01*
X139011Y16553D01*
X138978Y16391D01*
X138948Y16229D01*
X138923Y16066D01*
X138901Y15903D01*
X138883Y15739D01*
X138870Y15574D01*
X138860Y15410D01*
X138854Y15245D01*
X138852Y15080D01*
X143508Y15080D02*
X143506Y14915D01*
X143500Y14750D01*
X143490Y14586D01*
X143477Y14421D01*
X143459Y14257D01*
X143437Y14094D01*
X143412Y13931D01*
X143382Y13769D01*
X143349Y13607D01*
X143312Y13446D01*
X143271Y13287D01*
X143226Y13128D01*
X143178Y12970D01*
X143126Y12814D01*
X143070Y12659D01*
X143010Y12505D01*
X142947Y12353D01*
X142880Y12202D01*
X142809Y12053D01*
X142810Y12053D02*
X142781Y11976D01*
X142749Y11900D01*
X142713Y11826D01*
X142674Y11754D01*
X142632Y11684D01*
X142586Y11616D01*
X142537Y11550D01*
X142484Y11486D01*
X142429Y11425D01*
X142371Y11367D01*
X142311Y11312D01*
X142247Y11259D01*
X142181Y11210D01*
X142113Y11164D01*
X142043Y11121D01*
X141971Y11081D01*
X141897Y11045D01*
X141822Y11013D01*
X141745Y10984D01*
X141667Y10959D01*
X141587Y10938D01*
X141507Y10920D01*
X141426Y10907D01*
X141344Y10897D01*
X141262Y10891D01*
X141180Y10889D01*
X139550Y12053D02*
X139479Y12202D01*
X139412Y12353D01*
X139349Y12505D01*
X139289Y12659D01*
X139233Y12814D01*
X139181Y12970D01*
X139133Y13128D01*
X139088Y13287D01*
X139047Y13446D01*
X139010Y13607D01*
X138977Y13769D01*
X138947Y13931D01*
X138922Y14094D01*
X138900Y14257D01*
X138882Y14421D01*
X138869Y14586D01*
X138859Y14750D01*
X138853Y14915D01*
X138851Y15080D01*
X139550Y12053D02*
X139579Y11976D01*
X139611Y11900D01*
X139647Y11826D01*
X139686Y11754D01*
X139728Y11684D01*
X139774Y11616D01*
X139823Y11550D01*
X139876Y11486D01*
X139931Y11425D01*
X139989Y11367D01*
X140050Y11312D01*
X140113Y11259D01*
X140179Y11210D01*
X140247Y11164D01*
X140317Y11121D01*
X140389Y11081D01*
X140463Y11045D01*
X140538Y11013D01*
X140615Y10984D01*
X140693Y10959D01*
X140773Y10938D01*
X140853Y10920D01*
X140934Y10907D01*
X141016Y10897D01*
X141098Y10891D01*
X141180Y10889D01*
X143042Y12752D02*
X139317Y17408D01*
X134364Y17408D02*
X132036Y19271D01*
X132036Y10889D01*
X134364Y10889D02*
X129707Y10889D01*
X125669Y9958D02*
X121943Y20202D01*
X115344Y19272D02*
X115255Y19270D01*
X115166Y19264D01*
X115078Y19255D01*
X114990Y19242D01*
X114902Y19225D01*
X114816Y19204D01*
X114730Y19180D01*
X114646Y19152D01*
X114562Y19121D01*
X114481Y19086D01*
X114400Y19048D01*
X114322Y19006D01*
X114245Y18961D01*
X114170Y18913D01*
X114098Y18861D01*
X114027Y18807D01*
X113959Y18749D01*
X113894Y18689D01*
X113831Y18626D01*
X113771Y18561D01*
X113713Y18493D01*
X113659Y18422D01*
X113607Y18350D01*
X113559Y18275D01*
X113514Y18198D01*
X113472Y18120D01*
X113434Y18039D01*
X113399Y17958D01*
X113368Y17874D01*
X113340Y17790D01*
X113316Y17704D01*
X113295Y17618D01*
X113278Y17530D01*
X113265Y17442D01*
X113256Y17354D01*
X113250Y17265D01*
X113248Y17176D01*
X115344Y19271D02*
X115447Y19269D01*
X115549Y19263D01*
X115651Y19253D01*
X115753Y19240D01*
X115854Y19222D01*
X115954Y19201D01*
X116054Y19176D01*
X116152Y19147D01*
X116249Y19114D01*
X116345Y19078D01*
X116440Y19038D01*
X116533Y18994D01*
X116624Y18947D01*
X116713Y18897D01*
X116800Y18843D01*
X116886Y18786D01*
X116969Y18726D01*
X117049Y18662D01*
X117127Y18596D01*
X117203Y18526D01*
X117276Y18454D01*
X117346Y18379D01*
X117413Y18301D01*
X117477Y18221D01*
X117538Y18139D01*
X117596Y18054D01*
X117650Y17967D01*
X117702Y17878D01*
X117749Y17788D01*
X117794Y17695D01*
X117834Y17601D01*
X117872Y17505D01*
X117905Y17408D01*
X113947Y15546D02*
X113882Y15610D01*
X113820Y15677D01*
X113760Y15746D01*
X113704Y15818D01*
X113651Y15891D01*
X113600Y15967D01*
X113553Y16045D01*
X113509Y16125D01*
X113468Y16206D01*
X113430Y16289D01*
X113396Y16374D01*
X113365Y16460D01*
X113338Y16547D01*
X113314Y16635D01*
X113294Y16723D01*
X113277Y16813D01*
X113265Y16903D01*
X113255Y16994D01*
X113250Y17085D01*
X113248Y17176D01*
X113947Y15546D02*
X117905Y10889D01*
X113248Y10889D01*
X108761Y15080D02*
X108759Y15245D01*
X108753Y15410D01*
X108743Y15574D01*
X108730Y15739D01*
X108712Y15903D01*
X108690Y16066D01*
X108665Y16229D01*
X108635Y16391D01*
X108602Y16553D01*
X108565Y16713D01*
X108524Y16873D01*
X108479Y17032D01*
X108431Y17189D01*
X108379Y17346D01*
X108323Y17501D01*
X108263Y17655D01*
X108200Y17807D01*
X108133Y17958D01*
X108063Y18107D01*
X108034Y18184D01*
X108002Y18260D01*
X107967Y18334D01*
X107927Y18406D01*
X107885Y18476D01*
X107839Y18544D01*
X107790Y18610D01*
X107737Y18674D01*
X107682Y18735D01*
X107624Y18793D01*
X107564Y18848D01*
X107500Y18901D01*
X107434Y18950D01*
X107366Y18996D01*
X107296Y19039D01*
X107224Y19079D01*
X107150Y19115D01*
X107075Y19147D01*
X106998Y19176D01*
X106920Y19201D01*
X106840Y19222D01*
X106760Y19240D01*
X106679Y19253D01*
X106597Y19263D01*
X106515Y19269D01*
X106433Y19271D01*
X106351Y19269D01*
X106269Y19263D01*
X106187Y19253D01*
X106106Y19240D01*
X106026Y19222D01*
X105946Y19201D01*
X105868Y19176D01*
X105791Y19147D01*
X105716Y19115D01*
X105642Y19079D01*
X105570Y19039D01*
X105500Y18996D01*
X105432Y18950D01*
X105366Y18901D01*
X105303Y18848D01*
X105242Y18793D01*
X105184Y18735D01*
X105129Y18674D01*
X105076Y18610D01*
X105027Y18544D01*
X104981Y18476D01*
X104939Y18406D01*
X104900Y18334D01*
X104864Y18260D01*
X104832Y18184D01*
X104803Y18107D01*
X104733Y17958D01*
X104666Y17807D01*
X104603Y17655D01*
X104543Y17501D01*
X104487Y17346D01*
X104435Y17189D01*
X104387Y17032D01*
X104342Y16873D01*
X104301Y16713D01*
X104264Y16553D01*
X104231Y16391D01*
X104201Y16229D01*
X104176Y16066D01*
X104154Y15903D01*
X104136Y15739D01*
X104123Y15574D01*
X104113Y15410D01*
X104107Y15245D01*
X104105Y15080D01*
X108761Y15080D02*
X108759Y14915D01*
X108753Y14750D01*
X108743Y14586D01*
X108730Y14421D01*
X108712Y14257D01*
X108690Y14094D01*
X108665Y13931D01*
X108635Y13769D01*
X108602Y13607D01*
X108565Y13446D01*
X108524Y13287D01*
X108479Y13128D01*
X108431Y12970D01*
X108379Y12814D01*
X108323Y12659D01*
X108263Y12505D01*
X108200Y12353D01*
X108133Y12202D01*
X108062Y12053D01*
X108063Y12053D02*
X108034Y11976D01*
X108002Y11900D01*
X107966Y11826D01*
X107927Y11754D01*
X107885Y11684D01*
X107839Y11616D01*
X107790Y11550D01*
X107737Y11486D01*
X107682Y11425D01*
X107624Y11367D01*
X107564Y11312D01*
X107500Y11259D01*
X107434Y11210D01*
X107366Y11164D01*
X107296Y11121D01*
X107224Y11081D01*
X107150Y11045D01*
X107075Y11013D01*
X106998Y10984D01*
X106920Y10959D01*
X106840Y10938D01*
X106760Y10920D01*
X106679Y10907D01*
X106597Y10897D01*
X106515Y10891D01*
X106433Y10889D01*
X104803Y12053D02*
X104732Y12202D01*
X104665Y12353D01*
X104602Y12505D01*
X104542Y12659D01*
X104486Y12814D01*
X104434Y12970D01*
X104386Y13128D01*
X104341Y13287D01*
X104300Y13446D01*
X104263Y13607D01*
X104230Y13769D01*
X104200Y13931D01*
X104175Y14094D01*
X104153Y14257D01*
X104135Y14421D01*
X104122Y14586D01*
X104112Y14750D01*
X104106Y14915D01*
X104104Y15080D01*
X104803Y12053D02*
X104832Y11976D01*
X104864Y11900D01*
X104900Y11826D01*
X104939Y11754D01*
X104981Y11684D01*
X105027Y11616D01*
X105076Y11550D01*
X105129Y11486D01*
X105184Y11425D01*
X105242Y11367D01*
X105303Y11312D01*
X105366Y11259D01*
X105432Y11210D01*
X105500Y11164D01*
X105570Y11121D01*
X105642Y11081D01*
X105716Y11045D01*
X105791Y11013D01*
X105868Y10984D01*
X105946Y10959D01*
X106026Y10938D01*
X106106Y10920D01*
X106187Y10907D01*
X106269Y10897D01*
X106351Y10891D01*
X106433Y10889D01*
X108295Y12752D02*
X104570Y17408D01*
X97056Y19272D02*
X96967Y19270D01*
X96878Y19264D01*
X96790Y19255D01*
X96702Y19242D01*
X96614Y19225D01*
X96528Y19204D01*
X96442Y19180D01*
X96358Y19152D01*
X96274Y19121D01*
X96193Y19086D01*
X96112Y19048D01*
X96034Y19006D01*
X95957Y18961D01*
X95882Y18913D01*
X95810Y18861D01*
X95739Y18807D01*
X95671Y18749D01*
X95606Y18689D01*
X95543Y18626D01*
X95483Y18561D01*
X95425Y18493D01*
X95371Y18422D01*
X95319Y18350D01*
X95271Y18275D01*
X95226Y18198D01*
X95184Y18120D01*
X95146Y18039D01*
X95111Y17958D01*
X95080Y17874D01*
X95052Y17790D01*
X95028Y17704D01*
X95007Y17618D01*
X94990Y17530D01*
X94977Y17442D01*
X94968Y17354D01*
X94962Y17265D01*
X94960Y17176D01*
X97056Y19271D02*
X97159Y19269D01*
X97261Y19263D01*
X97363Y19253D01*
X97465Y19240D01*
X97566Y19222D01*
X97666Y19201D01*
X97766Y19176D01*
X97864Y19147D01*
X97961Y19114D01*
X98057Y19078D01*
X98152Y19038D01*
X98245Y18994D01*
X98336Y18947D01*
X98425Y18897D01*
X98512Y18843D01*
X98598Y18786D01*
X98681Y18726D01*
X98761Y18662D01*
X98839Y18596D01*
X98915Y18526D01*
X98988Y18454D01*
X99058Y18379D01*
X99125Y18301D01*
X99189Y18221D01*
X99250Y18139D01*
X99308Y18054D01*
X99362Y17967D01*
X99414Y17878D01*
X99461Y17788D01*
X99506Y17695D01*
X99546Y17601D01*
X99584Y17505D01*
X99617Y17408D01*
X95659Y15546D02*
X95594Y15610D01*
X95532Y15677D01*
X95472Y15746D01*
X95416Y15818D01*
X95363Y15891D01*
X95312Y15967D01*
X95265Y16045D01*
X95221Y16125D01*
X95180Y16206D01*
X95142Y16289D01*
X95108Y16374D01*
X95077Y16460D01*
X95050Y16547D01*
X95026Y16635D01*
X95006Y16723D01*
X94989Y16813D01*
X94977Y16903D01*
X94967Y16994D01*
X94962Y17085D01*
X94960Y17176D01*
X95659Y15546D02*
X99617Y10889D01*
X94960Y10889D01*
X90473Y10889D02*
X87679Y10889D01*
X87595Y10891D01*
X87512Y10896D01*
X87429Y10906D01*
X87346Y10919D01*
X87264Y10936D01*
X87183Y10956D01*
X87103Y10980D01*
X87024Y11008D01*
X86947Y11039D01*
X86871Y11073D01*
X86796Y11111D01*
X86723Y11153D01*
X86653Y11197D01*
X86584Y11245D01*
X86517Y11295D01*
X86453Y11349D01*
X86392Y11405D01*
X86332Y11465D01*
X86276Y11526D01*
X86222Y11590D01*
X86172Y11657D01*
X86124Y11726D01*
X86080Y11796D01*
X86038Y11869D01*
X86000Y11944D01*
X85966Y12020D01*
X85935Y12097D01*
X85907Y12176D01*
X85883Y12256D01*
X85863Y12337D01*
X85846Y12419D01*
X85833Y12502D01*
X85823Y12585D01*
X85818Y12668D01*
X85816Y12752D01*
X85816Y13683D01*
X85818Y13767D01*
X85824Y13850D01*
X85833Y13933D01*
X85846Y14016D01*
X85863Y14098D01*
X85883Y14179D01*
X85907Y14259D01*
X85935Y14338D01*
X85966Y14415D01*
X86000Y14491D01*
X86038Y14566D01*
X86080Y14639D01*
X86124Y14709D01*
X86172Y14778D01*
X86222Y14845D01*
X86276Y14909D01*
X86332Y14970D01*
X86392Y15030D01*
X86453Y15086D01*
X86517Y15140D01*
X86584Y15190D01*
X86653Y15238D01*
X86723Y15282D01*
X86796Y15324D01*
X86871Y15362D01*
X86947Y15396D01*
X87024Y15427D01*
X87103Y15455D01*
X87183Y15479D01*
X87264Y15499D01*
X87346Y15516D01*
X87429Y15529D01*
X87512Y15539D01*
X87595Y15544D01*
X87679Y15546D01*
X90473Y15546D01*
X90473Y19271D01*
X85816Y19271D01*
X166317Y30889D02*
X169111Y39271D01*
X163523Y39271D02*
X166317Y30889D01*
X159501Y37408D02*
X157173Y39271D01*
X157173Y30889D01*
X159501Y30889D02*
X154845Y30889D01*
D11*
X55000Y95000D03*
D12*
X105000Y95000D01*
D11*
X105000Y95000D03*
D12*
X61000Y95000D02*
X55151Y95940D01*
X55000Y95000D01*
X55151Y94060D02*
X61000Y95000D01*
X55151Y94060D02*
X55000Y95000D01*
X99000Y95000D02*
X104849Y94060D01*
X105000Y95000D01*
X104849Y95940D02*
X99000Y95000D01*
X104849Y95940D02*
X105000Y95000D01*
D13*
X66250Y31250D02*
X66250Y11250D01*
X46250Y11250D01*
X46250Y31250D01*
X66250Y31250D01*
X61250Y26250D02*
X56250Y26250D01*
X61250Y26250D02*
X61250Y21250D01*
X56250Y21250D01*
X56250Y16250D01*
X51250Y16250D01*
X51250Y21250D01*
M02*
