G04 EAGLE Gerber RS-274X export*
G75*
%MOMM*%
%FSLAX34Y34*%
%LPD*%
%INSilkscreen Top*%
%IPPOS*%
%AMOC8*
5,1,8,0,0,1.08239X$1,22.5*%
G01*
%ADD10C,0.076200*%
%ADD11C,0.127000*%


D10*
X7639Y118482D02*
X9685Y120119D01*
X9685Y112753D01*
X7639Y112753D02*
X11731Y112753D01*
X14954Y118482D02*
X17000Y120119D01*
X17000Y112753D01*
X14954Y112753D02*
X19046Y112753D01*
X26362Y118278D02*
X26360Y118363D01*
X26354Y118448D01*
X26344Y118532D01*
X26331Y118616D01*
X26313Y118700D01*
X26292Y118782D01*
X26267Y118863D01*
X26238Y118943D01*
X26205Y119022D01*
X26169Y119099D01*
X26129Y119174D01*
X26086Y119248D01*
X26040Y119319D01*
X25990Y119388D01*
X25937Y119455D01*
X25881Y119519D01*
X25822Y119580D01*
X25761Y119639D01*
X25697Y119695D01*
X25630Y119748D01*
X25561Y119798D01*
X25490Y119844D01*
X25416Y119887D01*
X25341Y119927D01*
X25264Y119963D01*
X25185Y119996D01*
X25105Y120025D01*
X25024Y120050D01*
X24942Y120071D01*
X24858Y120089D01*
X24774Y120102D01*
X24690Y120112D01*
X24605Y120118D01*
X24520Y120120D01*
X24520Y120119D02*
X24424Y120117D01*
X24328Y120111D01*
X24233Y120101D01*
X24138Y120088D01*
X24043Y120070D01*
X23950Y120049D01*
X23857Y120024D01*
X23766Y119995D01*
X23675Y119963D01*
X23586Y119927D01*
X23499Y119887D01*
X23413Y119844D01*
X23329Y119798D01*
X23247Y119748D01*
X23167Y119694D01*
X23090Y119638D01*
X23015Y119578D01*
X22942Y119516D01*
X22872Y119450D01*
X22804Y119382D01*
X22739Y119311D01*
X22678Y119238D01*
X22619Y119162D01*
X22563Y119083D01*
X22511Y119003D01*
X22462Y118920D01*
X22416Y118836D01*
X22374Y118750D01*
X22336Y118662D01*
X22301Y118573D01*
X22269Y118482D01*
X25747Y116846D02*
X25807Y116905D01*
X25864Y116967D01*
X25919Y117031D01*
X25970Y117098D01*
X26019Y117167D01*
X26065Y117237D01*
X26108Y117310D01*
X26148Y117384D01*
X26184Y117460D01*
X26217Y117538D01*
X26247Y117617D01*
X26274Y117697D01*
X26297Y117778D01*
X26316Y117860D01*
X26332Y117942D01*
X26345Y118026D01*
X26354Y118110D01*
X26359Y118194D01*
X26361Y118278D01*
X25748Y116845D02*
X22269Y112753D01*
X26361Y112753D01*
X39639Y118482D02*
X41685Y120119D01*
X41685Y112753D01*
X39639Y112753D02*
X43731Y112753D01*
X46954Y118482D02*
X49000Y120119D01*
X49000Y112753D01*
X46954Y112753D02*
X51046Y112753D01*
X54269Y116845D02*
X56724Y116845D01*
X56802Y116843D01*
X56880Y116838D01*
X56957Y116828D01*
X57034Y116815D01*
X57110Y116799D01*
X57185Y116779D01*
X57259Y116755D01*
X57332Y116728D01*
X57404Y116697D01*
X57474Y116663D01*
X57543Y116626D01*
X57609Y116585D01*
X57674Y116541D01*
X57736Y116495D01*
X57796Y116445D01*
X57854Y116393D01*
X57909Y116338D01*
X57961Y116280D01*
X58011Y116220D01*
X58057Y116158D01*
X58101Y116093D01*
X58142Y116027D01*
X58179Y115958D01*
X58213Y115888D01*
X58244Y115816D01*
X58271Y115743D01*
X58295Y115669D01*
X58315Y115594D01*
X58331Y115518D01*
X58344Y115441D01*
X58354Y115364D01*
X58359Y115286D01*
X58361Y115208D01*
X58361Y114799D01*
X58359Y114710D01*
X58353Y114621D01*
X58343Y114532D01*
X58330Y114444D01*
X58313Y114356D01*
X58291Y114269D01*
X58266Y114184D01*
X58238Y114099D01*
X58205Y114016D01*
X58169Y113934D01*
X58130Y113854D01*
X58087Y113776D01*
X58041Y113700D01*
X57991Y113625D01*
X57938Y113553D01*
X57882Y113484D01*
X57823Y113417D01*
X57762Y113352D01*
X57697Y113291D01*
X57630Y113232D01*
X57561Y113176D01*
X57489Y113123D01*
X57414Y113073D01*
X57338Y113027D01*
X57260Y112984D01*
X57180Y112945D01*
X57098Y112909D01*
X57015Y112876D01*
X56930Y112848D01*
X56845Y112823D01*
X56758Y112801D01*
X56670Y112784D01*
X56582Y112771D01*
X56493Y112761D01*
X56404Y112755D01*
X56315Y112753D01*
X56226Y112755D01*
X56137Y112761D01*
X56048Y112771D01*
X55960Y112784D01*
X55872Y112801D01*
X55785Y112823D01*
X55700Y112848D01*
X55615Y112876D01*
X55532Y112909D01*
X55450Y112945D01*
X55370Y112984D01*
X55292Y113027D01*
X55216Y113073D01*
X55141Y113123D01*
X55069Y113176D01*
X55000Y113232D01*
X54933Y113291D01*
X54868Y113352D01*
X54807Y113417D01*
X54748Y113484D01*
X54692Y113553D01*
X54639Y113625D01*
X54589Y113700D01*
X54543Y113776D01*
X54500Y113854D01*
X54461Y113934D01*
X54425Y114016D01*
X54392Y114099D01*
X54364Y114184D01*
X54339Y114269D01*
X54317Y114356D01*
X54300Y114444D01*
X54287Y114532D01*
X54277Y114621D01*
X54271Y114710D01*
X54269Y114799D01*
X54269Y116845D01*
X54271Y116959D01*
X54277Y117073D01*
X54287Y117187D01*
X54301Y117301D01*
X54319Y117414D01*
X54341Y117526D01*
X54366Y117637D01*
X54396Y117747D01*
X54429Y117857D01*
X54466Y117965D01*
X54507Y118071D01*
X54552Y118177D01*
X54600Y118280D01*
X54652Y118382D01*
X54708Y118482D01*
X54766Y118580D01*
X54829Y118676D01*
X54894Y118769D01*
X54963Y118861D01*
X55035Y118949D01*
X55110Y119036D01*
X55188Y119119D01*
X55269Y119200D01*
X55352Y119278D01*
X55439Y119353D01*
X55527Y119425D01*
X55619Y119494D01*
X55712Y119559D01*
X55808Y119621D01*
X55906Y119680D01*
X56006Y119736D01*
X56108Y119788D01*
X56211Y119836D01*
X56317Y119881D01*
X56423Y119922D01*
X56531Y119959D01*
X56641Y119992D01*
X56751Y120022D01*
X56862Y120047D01*
X56974Y120069D01*
X57087Y120087D01*
X57201Y120101D01*
X57315Y120111D01*
X57429Y120117D01*
X57543Y120119D01*
X138204Y191317D02*
X138204Y198683D01*
X140250Y198683D01*
X140339Y198681D01*
X140428Y198675D01*
X140517Y198665D01*
X140605Y198652D01*
X140693Y198635D01*
X140780Y198613D01*
X140865Y198588D01*
X140950Y198560D01*
X141033Y198527D01*
X141115Y198491D01*
X141195Y198452D01*
X141273Y198409D01*
X141349Y198363D01*
X141424Y198313D01*
X141496Y198260D01*
X141565Y198204D01*
X141632Y198145D01*
X141697Y198084D01*
X141758Y198019D01*
X141817Y197952D01*
X141873Y197883D01*
X141926Y197811D01*
X141976Y197736D01*
X142022Y197660D01*
X142065Y197582D01*
X142104Y197502D01*
X142140Y197420D01*
X142173Y197337D01*
X142201Y197252D01*
X142226Y197167D01*
X142248Y197080D01*
X142265Y196992D01*
X142278Y196904D01*
X142288Y196815D01*
X142294Y196726D01*
X142296Y196637D01*
X142294Y196548D01*
X142288Y196459D01*
X142278Y196370D01*
X142265Y196282D01*
X142248Y196194D01*
X142226Y196107D01*
X142201Y196022D01*
X142173Y195937D01*
X142140Y195854D01*
X142104Y195772D01*
X142065Y195692D01*
X142022Y195614D01*
X141976Y195538D01*
X141926Y195463D01*
X141873Y195391D01*
X141817Y195322D01*
X141758Y195255D01*
X141697Y195190D01*
X141632Y195129D01*
X141565Y195070D01*
X141496Y195014D01*
X141424Y194961D01*
X141349Y194911D01*
X141273Y194865D01*
X141195Y194822D01*
X141115Y194783D01*
X141033Y194747D01*
X140950Y194714D01*
X140865Y194686D01*
X140780Y194661D01*
X140693Y194639D01*
X140605Y194622D01*
X140517Y194609D01*
X140428Y194599D01*
X140339Y194593D01*
X140250Y194591D01*
X138204Y194591D01*
X140659Y194591D02*
X142296Y191317D01*
X145115Y191317D02*
X145115Y191726D01*
X145524Y191726D01*
X145524Y191317D01*
X145115Y191317D01*
X148977Y191317D02*
X148977Y198683D01*
X148158Y191317D02*
X149795Y191317D01*
X149795Y198683D02*
X148158Y198683D01*
X153027Y198683D02*
X153027Y191317D01*
X157119Y191317D02*
X153027Y198683D01*
X157119Y198683D02*
X157119Y191317D01*
X159914Y30247D02*
X159914Y22881D01*
X163188Y22881D01*
X165994Y28610D02*
X168040Y30247D01*
X168040Y22881D01*
X165994Y22881D02*
X170086Y22881D01*
X134914Y22881D02*
X134914Y30247D01*
X134914Y22881D02*
X138188Y22881D01*
X140994Y26564D02*
X140996Y26717D01*
X141002Y26870D01*
X141011Y27022D01*
X141025Y27175D01*
X141042Y27327D01*
X141063Y27478D01*
X141088Y27629D01*
X141117Y27779D01*
X141149Y27929D01*
X141186Y28077D01*
X141226Y28225D01*
X141269Y28372D01*
X141317Y28517D01*
X141368Y28661D01*
X141422Y28804D01*
X141481Y28946D01*
X141542Y29085D01*
X141608Y29224D01*
X141634Y29294D01*
X141664Y29364D01*
X141697Y29431D01*
X141733Y29497D01*
X141772Y29561D01*
X141815Y29623D01*
X141861Y29682D01*
X141909Y29740D01*
X141960Y29794D01*
X142014Y29847D01*
X142071Y29896D01*
X142130Y29943D01*
X142191Y29986D01*
X142254Y30027D01*
X142319Y30064D01*
X142386Y30099D01*
X142455Y30129D01*
X142525Y30157D01*
X142596Y30180D01*
X142668Y30201D01*
X142741Y30217D01*
X142815Y30230D01*
X142890Y30240D01*
X142965Y30245D01*
X143040Y30247D01*
X143115Y30245D01*
X143190Y30240D01*
X143265Y30230D01*
X143339Y30217D01*
X143412Y30201D01*
X143484Y30180D01*
X143555Y30157D01*
X143625Y30129D01*
X143694Y30099D01*
X143761Y30064D01*
X143826Y30027D01*
X143889Y29986D01*
X143950Y29943D01*
X144009Y29896D01*
X144066Y29847D01*
X144120Y29794D01*
X144171Y29740D01*
X144220Y29682D01*
X144265Y29623D01*
X144308Y29561D01*
X144347Y29497D01*
X144384Y29431D01*
X144416Y29363D01*
X144446Y29294D01*
X144472Y29224D01*
X144537Y29086D01*
X144599Y28946D01*
X144657Y28804D01*
X144712Y28661D01*
X144763Y28517D01*
X144811Y28372D01*
X144854Y28225D01*
X144894Y28078D01*
X144931Y27929D01*
X144963Y27779D01*
X144992Y27629D01*
X145017Y27478D01*
X145038Y27327D01*
X145055Y27175D01*
X145069Y27022D01*
X145078Y26870D01*
X145084Y26717D01*
X145086Y26564D01*
X140994Y26564D02*
X140996Y26411D01*
X141002Y26258D01*
X141011Y26105D01*
X141025Y25953D01*
X141042Y25801D01*
X141063Y25650D01*
X141088Y25499D01*
X141117Y25348D01*
X141149Y25199D01*
X141186Y25050D01*
X141226Y24903D01*
X141269Y24756D01*
X141317Y24611D01*
X141368Y24466D01*
X141423Y24324D01*
X141481Y24182D01*
X141543Y24042D01*
X141608Y23904D01*
X141634Y23833D01*
X141664Y23764D01*
X141697Y23697D01*
X141733Y23631D01*
X141772Y23567D01*
X141815Y23505D01*
X141861Y23446D01*
X141909Y23388D01*
X141960Y23334D01*
X142014Y23281D01*
X142071Y23232D01*
X142130Y23185D01*
X142191Y23142D01*
X142254Y23101D01*
X142319Y23064D01*
X142386Y23029D01*
X142455Y22999D01*
X142525Y22971D01*
X142596Y22948D01*
X142668Y22927D01*
X142741Y22911D01*
X142815Y22898D01*
X142890Y22888D01*
X142965Y22883D01*
X143040Y22881D01*
X144472Y23904D02*
X144537Y24042D01*
X144599Y24182D01*
X144657Y24324D01*
X144712Y24467D01*
X144763Y24611D01*
X144811Y24756D01*
X144854Y24903D01*
X144894Y25051D01*
X144931Y25199D01*
X144963Y25349D01*
X144992Y25499D01*
X145017Y25650D01*
X145038Y25801D01*
X145055Y25953D01*
X145069Y26106D01*
X145078Y26258D01*
X145084Y26411D01*
X145086Y26564D01*
X144472Y23904D02*
X144446Y23834D01*
X144416Y23764D01*
X144384Y23697D01*
X144347Y23631D01*
X144308Y23567D01*
X144265Y23505D01*
X144219Y23446D01*
X144171Y23388D01*
X144120Y23334D01*
X144066Y23281D01*
X144009Y23232D01*
X143950Y23185D01*
X143889Y23142D01*
X143826Y23101D01*
X143761Y23064D01*
X143694Y23029D01*
X143625Y22999D01*
X143555Y22971D01*
X143484Y22948D01*
X143412Y22927D01*
X143339Y22911D01*
X143265Y22898D01*
X143190Y22888D01*
X143115Y22883D01*
X143040Y22881D01*
X141403Y24518D02*
X144677Y28610D01*
X128206Y211317D02*
X128206Y218683D01*
X130252Y218683D01*
X130341Y218681D01*
X130430Y218675D01*
X130519Y218665D01*
X130607Y218652D01*
X130695Y218635D01*
X130782Y218613D01*
X130867Y218588D01*
X130952Y218560D01*
X131035Y218527D01*
X131117Y218491D01*
X131197Y218452D01*
X131275Y218409D01*
X131351Y218363D01*
X131426Y218313D01*
X131498Y218260D01*
X131567Y218204D01*
X131634Y218145D01*
X131699Y218084D01*
X131760Y218019D01*
X131819Y217952D01*
X131875Y217883D01*
X131928Y217811D01*
X131978Y217736D01*
X132024Y217660D01*
X132067Y217582D01*
X132106Y217502D01*
X132142Y217420D01*
X132175Y217337D01*
X132203Y217252D01*
X132228Y217167D01*
X132250Y217080D01*
X132267Y216992D01*
X132280Y216904D01*
X132290Y216815D01*
X132296Y216726D01*
X132298Y216637D01*
X132296Y216548D01*
X132290Y216459D01*
X132280Y216370D01*
X132267Y216282D01*
X132250Y216194D01*
X132228Y216107D01*
X132203Y216022D01*
X132175Y215937D01*
X132142Y215854D01*
X132106Y215772D01*
X132067Y215692D01*
X132024Y215614D01*
X131978Y215538D01*
X131928Y215463D01*
X131875Y215391D01*
X131819Y215322D01*
X131760Y215255D01*
X131699Y215190D01*
X131634Y215129D01*
X131567Y215070D01*
X131498Y215014D01*
X131426Y214961D01*
X131351Y214911D01*
X131275Y214865D01*
X131197Y214822D01*
X131117Y214783D01*
X131035Y214747D01*
X130952Y214714D01*
X130867Y214686D01*
X130782Y214661D01*
X130695Y214639D01*
X130607Y214622D01*
X130519Y214609D01*
X130430Y214599D01*
X130341Y214593D01*
X130252Y214591D01*
X128206Y214591D01*
X130662Y214591D02*
X132299Y211317D01*
X135117Y211317D02*
X135117Y211726D01*
X135527Y211726D01*
X135527Y211317D01*
X135117Y211317D01*
X138396Y213363D02*
X138396Y216637D01*
X138397Y216637D02*
X138399Y216726D01*
X138405Y216815D01*
X138415Y216904D01*
X138428Y216992D01*
X138445Y217080D01*
X138467Y217167D01*
X138492Y217252D01*
X138520Y217337D01*
X138553Y217420D01*
X138589Y217502D01*
X138628Y217582D01*
X138671Y217660D01*
X138717Y217736D01*
X138767Y217811D01*
X138820Y217883D01*
X138876Y217952D01*
X138935Y218019D01*
X138996Y218084D01*
X139061Y218145D01*
X139128Y218204D01*
X139197Y218260D01*
X139269Y218313D01*
X139344Y218363D01*
X139420Y218409D01*
X139498Y218452D01*
X139578Y218491D01*
X139660Y218527D01*
X139743Y218560D01*
X139828Y218588D01*
X139913Y218613D01*
X140000Y218635D01*
X140088Y218652D01*
X140176Y218665D01*
X140265Y218675D01*
X140354Y218681D01*
X140443Y218683D01*
X140532Y218681D01*
X140621Y218675D01*
X140710Y218665D01*
X140798Y218652D01*
X140886Y218635D01*
X140973Y218613D01*
X141058Y218588D01*
X141143Y218560D01*
X141226Y218527D01*
X141308Y218491D01*
X141388Y218452D01*
X141466Y218409D01*
X141542Y218363D01*
X141617Y218313D01*
X141689Y218260D01*
X141758Y218204D01*
X141825Y218145D01*
X141890Y218084D01*
X141951Y218019D01*
X142010Y217952D01*
X142066Y217883D01*
X142119Y217811D01*
X142169Y217736D01*
X142215Y217660D01*
X142258Y217582D01*
X142297Y217502D01*
X142333Y217420D01*
X142366Y217337D01*
X142394Y217252D01*
X142419Y217167D01*
X142441Y217080D01*
X142458Y216992D01*
X142471Y216904D01*
X142481Y216815D01*
X142487Y216726D01*
X142489Y216637D01*
X142489Y213363D01*
X142487Y213274D01*
X142481Y213185D01*
X142471Y213096D01*
X142458Y213008D01*
X142441Y212920D01*
X142419Y212833D01*
X142394Y212748D01*
X142366Y212663D01*
X142333Y212580D01*
X142297Y212498D01*
X142258Y212418D01*
X142215Y212340D01*
X142169Y212264D01*
X142119Y212189D01*
X142066Y212117D01*
X142010Y212048D01*
X141951Y211981D01*
X141890Y211916D01*
X141825Y211855D01*
X141758Y211796D01*
X141689Y211740D01*
X141617Y211687D01*
X141542Y211637D01*
X141466Y211591D01*
X141388Y211548D01*
X141308Y211509D01*
X141226Y211473D01*
X141143Y211440D01*
X141058Y211412D01*
X140973Y211387D01*
X140886Y211365D01*
X140798Y211348D01*
X140710Y211335D01*
X140621Y211325D01*
X140532Y211319D01*
X140443Y211317D01*
X140354Y211319D01*
X140265Y211325D01*
X140176Y211335D01*
X140088Y211348D01*
X140000Y211365D01*
X139913Y211387D01*
X139828Y211412D01*
X139743Y211440D01*
X139660Y211473D01*
X139578Y211509D01*
X139498Y211548D01*
X139420Y211591D01*
X139344Y211637D01*
X139269Y211687D01*
X139197Y211740D01*
X139128Y211796D01*
X139061Y211855D01*
X138996Y211916D01*
X138935Y211981D01*
X138876Y212048D01*
X138820Y212117D01*
X138767Y212189D01*
X138717Y212264D01*
X138671Y212340D01*
X138628Y212418D01*
X138589Y212498D01*
X138553Y212580D01*
X138520Y212663D01*
X138492Y212748D01*
X138467Y212833D01*
X138445Y212920D01*
X138428Y213008D01*
X138415Y213096D01*
X138405Y213185D01*
X138399Y213274D01*
X138397Y213363D01*
X145955Y213363D02*
X145955Y218683D01*
X145956Y213363D02*
X145958Y213274D01*
X145964Y213185D01*
X145974Y213096D01*
X145987Y213008D01*
X146004Y212920D01*
X146026Y212833D01*
X146051Y212748D01*
X146079Y212663D01*
X146112Y212580D01*
X146148Y212498D01*
X146187Y212418D01*
X146230Y212340D01*
X146276Y212264D01*
X146326Y212189D01*
X146379Y212117D01*
X146435Y212048D01*
X146494Y211981D01*
X146555Y211916D01*
X146620Y211855D01*
X146687Y211796D01*
X146756Y211740D01*
X146828Y211687D01*
X146903Y211637D01*
X146979Y211591D01*
X147057Y211548D01*
X147137Y211509D01*
X147219Y211473D01*
X147302Y211440D01*
X147387Y211412D01*
X147472Y211387D01*
X147559Y211365D01*
X147647Y211348D01*
X147735Y211335D01*
X147824Y211325D01*
X147913Y211319D01*
X148002Y211317D01*
X148091Y211319D01*
X148180Y211325D01*
X148269Y211335D01*
X148357Y211348D01*
X148445Y211365D01*
X148532Y211387D01*
X148617Y211412D01*
X148702Y211440D01*
X148785Y211473D01*
X148867Y211509D01*
X148947Y211548D01*
X149025Y211591D01*
X149101Y211637D01*
X149176Y211687D01*
X149248Y211740D01*
X149317Y211796D01*
X149384Y211855D01*
X149449Y211916D01*
X149510Y211981D01*
X149569Y212048D01*
X149625Y212117D01*
X149678Y212189D01*
X149728Y212264D01*
X149774Y212340D01*
X149817Y212418D01*
X149856Y212498D01*
X149892Y212580D01*
X149925Y212663D01*
X149953Y212748D01*
X149978Y212833D01*
X150000Y212920D01*
X150017Y213008D01*
X150030Y213096D01*
X150040Y213185D01*
X150046Y213274D01*
X150048Y213363D01*
X150048Y218683D01*
X155073Y218683D02*
X155073Y211317D01*
X153027Y218683D02*
X157119Y218683D01*
X78243Y116845D02*
X77016Y116845D01*
X78243Y116845D02*
X78243Y112753D01*
X75788Y112753D01*
X75710Y112755D01*
X75632Y112760D01*
X75555Y112770D01*
X75478Y112783D01*
X75402Y112799D01*
X75327Y112819D01*
X75253Y112843D01*
X75180Y112870D01*
X75108Y112901D01*
X75038Y112935D01*
X74970Y112972D01*
X74903Y113013D01*
X74838Y113057D01*
X74776Y113103D01*
X74716Y113153D01*
X74658Y113205D01*
X74603Y113260D01*
X74551Y113318D01*
X74501Y113378D01*
X74455Y113440D01*
X74411Y113505D01*
X74370Y113572D01*
X74333Y113640D01*
X74299Y113710D01*
X74268Y113782D01*
X74241Y113855D01*
X74217Y113929D01*
X74197Y114004D01*
X74181Y114080D01*
X74168Y114157D01*
X74158Y114234D01*
X74153Y114312D01*
X74151Y114390D01*
X74151Y118482D01*
X74153Y118562D01*
X74159Y118642D01*
X74169Y118722D01*
X74182Y118801D01*
X74200Y118880D01*
X74221Y118957D01*
X74247Y119033D01*
X74276Y119108D01*
X74308Y119182D01*
X74344Y119254D01*
X74384Y119324D01*
X74427Y119391D01*
X74473Y119457D01*
X74523Y119520D01*
X74575Y119581D01*
X74630Y119640D01*
X74689Y119695D01*
X74749Y119747D01*
X74813Y119797D01*
X74879Y119843D01*
X74946Y119886D01*
X75016Y119926D01*
X75088Y119962D01*
X75162Y119994D01*
X75236Y120023D01*
X75313Y120049D01*
X75390Y120070D01*
X75469Y120088D01*
X75548Y120101D01*
X75628Y120111D01*
X75708Y120117D01*
X75788Y120119D01*
X78243Y120119D01*
X81954Y120119D02*
X81954Y112753D01*
X86046Y112753D02*
X81954Y120119D01*
X86046Y120119D02*
X86046Y112753D01*
X89757Y112753D02*
X89757Y120119D01*
X91803Y120119D01*
X91892Y120117D01*
X91981Y120111D01*
X92070Y120101D01*
X92158Y120088D01*
X92246Y120071D01*
X92333Y120049D01*
X92418Y120024D01*
X92503Y119996D01*
X92586Y119963D01*
X92668Y119927D01*
X92748Y119888D01*
X92826Y119845D01*
X92902Y119799D01*
X92977Y119749D01*
X93049Y119696D01*
X93118Y119640D01*
X93185Y119581D01*
X93250Y119520D01*
X93311Y119455D01*
X93370Y119388D01*
X93426Y119319D01*
X93479Y119247D01*
X93529Y119172D01*
X93575Y119096D01*
X93618Y119018D01*
X93657Y118938D01*
X93693Y118856D01*
X93726Y118773D01*
X93754Y118688D01*
X93779Y118603D01*
X93801Y118516D01*
X93818Y118428D01*
X93831Y118340D01*
X93841Y118251D01*
X93847Y118162D01*
X93849Y118073D01*
X93849Y114799D01*
X93847Y114710D01*
X93841Y114621D01*
X93831Y114532D01*
X93818Y114444D01*
X93801Y114356D01*
X93779Y114269D01*
X93754Y114184D01*
X93726Y114099D01*
X93693Y114016D01*
X93657Y113934D01*
X93618Y113854D01*
X93575Y113776D01*
X93529Y113700D01*
X93479Y113625D01*
X93426Y113553D01*
X93370Y113484D01*
X93311Y113417D01*
X93250Y113352D01*
X93185Y113291D01*
X93118Y113232D01*
X93049Y113176D01*
X92977Y113123D01*
X92902Y113073D01*
X92826Y113027D01*
X92748Y112984D01*
X92668Y112945D01*
X92586Y112909D01*
X92503Y112876D01*
X92418Y112848D01*
X92333Y112823D01*
X92246Y112801D01*
X92158Y112784D01*
X92070Y112771D01*
X91981Y112761D01*
X91892Y112755D01*
X91803Y112753D01*
X89757Y112753D01*
X139881Y172317D02*
X141927Y172317D01*
X142016Y172319D01*
X142105Y172325D01*
X142194Y172335D01*
X142282Y172348D01*
X142370Y172365D01*
X142457Y172387D01*
X142542Y172412D01*
X142627Y172440D01*
X142710Y172473D01*
X142792Y172509D01*
X142872Y172548D01*
X142950Y172591D01*
X143026Y172637D01*
X143101Y172687D01*
X143173Y172740D01*
X143242Y172796D01*
X143309Y172855D01*
X143374Y172916D01*
X143435Y172981D01*
X143494Y173048D01*
X143550Y173117D01*
X143603Y173189D01*
X143653Y173264D01*
X143699Y173340D01*
X143742Y173418D01*
X143781Y173498D01*
X143817Y173580D01*
X143850Y173663D01*
X143878Y173748D01*
X143903Y173833D01*
X143925Y173920D01*
X143942Y174008D01*
X143955Y174096D01*
X143965Y174185D01*
X143971Y174274D01*
X143973Y174363D01*
X143971Y174452D01*
X143965Y174541D01*
X143955Y174630D01*
X143942Y174718D01*
X143925Y174806D01*
X143903Y174893D01*
X143878Y174978D01*
X143850Y175063D01*
X143817Y175146D01*
X143781Y175228D01*
X143742Y175308D01*
X143699Y175386D01*
X143653Y175462D01*
X143603Y175537D01*
X143550Y175609D01*
X143494Y175678D01*
X143435Y175745D01*
X143374Y175810D01*
X143309Y175871D01*
X143242Y175930D01*
X143173Y175986D01*
X143101Y176039D01*
X143026Y176089D01*
X142950Y176135D01*
X142872Y176178D01*
X142792Y176217D01*
X142710Y176253D01*
X142627Y176286D01*
X142542Y176314D01*
X142457Y176339D01*
X142370Y176361D01*
X142282Y176378D01*
X142194Y176391D01*
X142105Y176401D01*
X142016Y176407D01*
X141927Y176409D01*
X142336Y179683D02*
X139881Y179683D01*
X142336Y179683D02*
X142415Y179681D01*
X142494Y179675D01*
X142573Y179666D01*
X142651Y179653D01*
X142728Y179635D01*
X142804Y179615D01*
X142879Y179590D01*
X142953Y179562D01*
X143026Y179531D01*
X143097Y179495D01*
X143166Y179457D01*
X143233Y179415D01*
X143298Y179370D01*
X143361Y179322D01*
X143422Y179271D01*
X143479Y179217D01*
X143535Y179161D01*
X143587Y179102D01*
X143637Y179040D01*
X143683Y178976D01*
X143727Y178910D01*
X143767Y178842D01*
X143803Y178772D01*
X143837Y178700D01*
X143867Y178626D01*
X143893Y178552D01*
X143916Y178476D01*
X143934Y178399D01*
X143950Y178322D01*
X143961Y178243D01*
X143969Y178165D01*
X143973Y178086D01*
X143973Y178006D01*
X143969Y177927D01*
X143961Y177849D01*
X143950Y177770D01*
X143934Y177693D01*
X143916Y177616D01*
X143893Y177540D01*
X143867Y177466D01*
X143837Y177392D01*
X143803Y177320D01*
X143767Y177250D01*
X143727Y177182D01*
X143683Y177116D01*
X143637Y177052D01*
X143587Y176990D01*
X143535Y176931D01*
X143479Y176875D01*
X143422Y176821D01*
X143361Y176770D01*
X143298Y176722D01*
X143233Y176677D01*
X143166Y176635D01*
X143097Y176597D01*
X143026Y176561D01*
X142953Y176530D01*
X142879Y176502D01*
X142804Y176477D01*
X142728Y176457D01*
X142651Y176439D01*
X142573Y176426D01*
X142494Y176417D01*
X142415Y176411D01*
X142336Y176409D01*
X140699Y176409D01*
X146787Y179683D02*
X149242Y172317D01*
X151698Y179683D01*
X154511Y172317D02*
X156557Y172317D01*
X156646Y172319D01*
X156735Y172325D01*
X156824Y172335D01*
X156912Y172348D01*
X157000Y172365D01*
X157087Y172387D01*
X157172Y172412D01*
X157257Y172440D01*
X157340Y172473D01*
X157422Y172509D01*
X157502Y172548D01*
X157580Y172591D01*
X157656Y172637D01*
X157731Y172687D01*
X157803Y172740D01*
X157872Y172796D01*
X157939Y172855D01*
X158004Y172916D01*
X158065Y172981D01*
X158124Y173048D01*
X158180Y173117D01*
X158233Y173189D01*
X158283Y173264D01*
X158329Y173340D01*
X158372Y173418D01*
X158411Y173498D01*
X158447Y173580D01*
X158480Y173663D01*
X158508Y173748D01*
X158533Y173833D01*
X158555Y173920D01*
X158572Y174008D01*
X158585Y174096D01*
X158595Y174185D01*
X158601Y174274D01*
X158603Y174363D01*
X158601Y174452D01*
X158595Y174541D01*
X158585Y174630D01*
X158572Y174718D01*
X158555Y174806D01*
X158533Y174893D01*
X158508Y174978D01*
X158480Y175063D01*
X158447Y175146D01*
X158411Y175228D01*
X158372Y175308D01*
X158329Y175386D01*
X158283Y175462D01*
X158233Y175537D01*
X158180Y175609D01*
X158124Y175678D01*
X158065Y175745D01*
X158004Y175810D01*
X157939Y175871D01*
X157872Y175930D01*
X157803Y175986D01*
X157731Y176039D01*
X157656Y176089D01*
X157580Y176135D01*
X157502Y176178D01*
X157422Y176217D01*
X157340Y176253D01*
X157257Y176286D01*
X157172Y176314D01*
X157087Y176339D01*
X157000Y176361D01*
X156912Y176378D01*
X156824Y176391D01*
X156735Y176401D01*
X156646Y176407D01*
X156557Y176409D01*
X156967Y179683D02*
X154511Y179683D01*
X156967Y179683D02*
X157046Y179681D01*
X157125Y179675D01*
X157204Y179666D01*
X157282Y179653D01*
X157359Y179635D01*
X157435Y179615D01*
X157510Y179590D01*
X157584Y179562D01*
X157657Y179531D01*
X157728Y179495D01*
X157797Y179457D01*
X157864Y179415D01*
X157929Y179370D01*
X157992Y179322D01*
X158053Y179271D01*
X158110Y179217D01*
X158166Y179161D01*
X158218Y179102D01*
X158268Y179040D01*
X158314Y178976D01*
X158358Y178910D01*
X158398Y178842D01*
X158434Y178772D01*
X158468Y178700D01*
X158498Y178626D01*
X158524Y178552D01*
X158547Y178476D01*
X158565Y178399D01*
X158581Y178322D01*
X158592Y178243D01*
X158600Y178165D01*
X158604Y178086D01*
X158604Y178006D01*
X158600Y177927D01*
X158592Y177849D01*
X158581Y177770D01*
X158565Y177693D01*
X158547Y177616D01*
X158524Y177540D01*
X158498Y177466D01*
X158468Y177392D01*
X158434Y177320D01*
X158398Y177250D01*
X158358Y177182D01*
X158314Y177116D01*
X158268Y177052D01*
X158218Y176990D01*
X158166Y176931D01*
X158110Y176875D01*
X158053Y176821D01*
X157992Y176770D01*
X157929Y176722D01*
X157864Y176677D01*
X157797Y176635D01*
X157728Y176597D01*
X157657Y176561D01*
X157584Y176530D01*
X157510Y176502D01*
X157435Y176477D01*
X157359Y176457D01*
X157282Y176439D01*
X157204Y176426D01*
X157125Y176417D01*
X157046Y176411D01*
X156967Y176409D01*
X155330Y176409D01*
D11*
X115560Y39600D02*
X60950Y39600D01*
X60950Y90400D02*
X99050Y90400D01*
M02*
