G04 EAGLE Gerber RS-274X export*
G75*
%MOMM*%
%FSLAX34Y34*%
%LPD*%
%INSilkscreen Bottom*%
%IPPOS*%
%AMOC8*
5,1,8,0,0,1.08239X$1,22.5*%
G01*
%ADD10C,0.076200*%


D10*
X169079Y70540D02*
X167789Y65381D01*
X166500Y68820D01*
X165210Y65381D01*
X163920Y70540D01*
X160919Y70540D02*
X159629Y65381D01*
X158340Y68820D01*
X157050Y65381D01*
X155760Y70540D01*
X152759Y70540D02*
X151469Y65381D01*
X150180Y68820D01*
X148890Y65381D01*
X147600Y70540D01*
X144785Y65811D02*
X144785Y65381D01*
X144785Y65811D02*
X144355Y65811D01*
X144355Y65381D01*
X144785Y65381D01*
X140145Y65381D02*
X138426Y65381D01*
X140145Y65381D02*
X140215Y65383D01*
X140284Y65389D01*
X140354Y65398D01*
X140422Y65411D01*
X140490Y65428D01*
X140557Y65449D01*
X140622Y65473D01*
X140687Y65500D01*
X140749Y65531D01*
X140810Y65566D01*
X140869Y65603D01*
X140926Y65644D01*
X140980Y65688D01*
X141032Y65734D01*
X141082Y65784D01*
X141128Y65836D01*
X141172Y65890D01*
X141213Y65947D01*
X141250Y66006D01*
X141285Y66067D01*
X141316Y66129D01*
X141343Y66194D01*
X141367Y66259D01*
X141388Y66326D01*
X141405Y66394D01*
X141418Y66462D01*
X141427Y66532D01*
X141433Y66601D01*
X141435Y66671D01*
X141435Y69250D01*
X141433Y69320D01*
X141427Y69389D01*
X141418Y69459D01*
X141405Y69527D01*
X141388Y69595D01*
X141367Y69662D01*
X141343Y69727D01*
X141316Y69792D01*
X141285Y69854D01*
X141250Y69915D01*
X141213Y69974D01*
X141172Y70031D01*
X141128Y70085D01*
X141082Y70137D01*
X141032Y70187D01*
X140980Y70233D01*
X140926Y70277D01*
X140869Y70318D01*
X140810Y70355D01*
X140749Y70390D01*
X140687Y70421D01*
X140622Y70448D01*
X140557Y70472D01*
X140490Y70493D01*
X140422Y70510D01*
X140354Y70523D01*
X140284Y70532D01*
X140215Y70538D01*
X140145Y70540D01*
X138426Y70540D01*
X135579Y68820D02*
X135579Y67101D01*
X135580Y68820D02*
X135578Y68902D01*
X135572Y68983D01*
X135562Y69065D01*
X135549Y69146D01*
X135532Y69226D01*
X135510Y69305D01*
X135485Y69383D01*
X135457Y69459D01*
X135425Y69535D01*
X135389Y69608D01*
X135350Y69680D01*
X135307Y69750D01*
X135261Y69818D01*
X135212Y69883D01*
X135160Y69946D01*
X135105Y70007D01*
X135047Y70065D01*
X134986Y70120D01*
X134923Y70172D01*
X134858Y70221D01*
X134790Y70267D01*
X134720Y70310D01*
X134648Y70349D01*
X134575Y70385D01*
X134499Y70417D01*
X134423Y70445D01*
X134345Y70470D01*
X134266Y70492D01*
X134186Y70509D01*
X134105Y70522D01*
X134023Y70532D01*
X133942Y70538D01*
X133860Y70540D01*
X133778Y70538D01*
X133697Y70532D01*
X133615Y70522D01*
X133534Y70509D01*
X133454Y70492D01*
X133375Y70470D01*
X133297Y70445D01*
X133221Y70417D01*
X133145Y70385D01*
X133072Y70349D01*
X133000Y70310D01*
X132930Y70267D01*
X132862Y70221D01*
X132797Y70172D01*
X132734Y70120D01*
X132673Y70065D01*
X132615Y70007D01*
X132560Y69946D01*
X132508Y69883D01*
X132459Y69818D01*
X132413Y69750D01*
X132370Y69680D01*
X132331Y69608D01*
X132295Y69535D01*
X132263Y69459D01*
X132235Y69383D01*
X132210Y69305D01*
X132188Y69226D01*
X132171Y69146D01*
X132158Y69065D01*
X132148Y68983D01*
X132142Y68902D01*
X132140Y68820D01*
X132140Y67101D01*
X132142Y67019D01*
X132148Y66938D01*
X132158Y66856D01*
X132171Y66775D01*
X132188Y66695D01*
X132210Y66616D01*
X132235Y66538D01*
X132263Y66462D01*
X132295Y66386D01*
X132331Y66313D01*
X132370Y66241D01*
X132413Y66171D01*
X132459Y66103D01*
X132508Y66038D01*
X132560Y65975D01*
X132615Y65914D01*
X132673Y65856D01*
X132734Y65801D01*
X132797Y65749D01*
X132862Y65700D01*
X132930Y65654D01*
X133000Y65611D01*
X133072Y65572D01*
X133145Y65536D01*
X133221Y65504D01*
X133297Y65476D01*
X133375Y65451D01*
X133454Y65429D01*
X133534Y65412D01*
X133615Y65399D01*
X133697Y65389D01*
X133778Y65383D01*
X133860Y65381D01*
X133942Y65383D01*
X134023Y65389D01*
X134105Y65399D01*
X134186Y65412D01*
X134266Y65429D01*
X134345Y65451D01*
X134423Y65476D01*
X134499Y65504D01*
X134575Y65536D01*
X134648Y65572D01*
X134720Y65611D01*
X134790Y65654D01*
X134858Y65700D01*
X134923Y65749D01*
X134986Y65801D01*
X135047Y65856D01*
X135105Y65914D01*
X135160Y65975D01*
X135212Y66038D01*
X135261Y66103D01*
X135307Y66171D01*
X135350Y66241D01*
X135389Y66313D01*
X135425Y66386D01*
X135457Y66462D01*
X135485Y66538D01*
X135510Y66616D01*
X135532Y66695D01*
X135549Y66775D01*
X135562Y66856D01*
X135572Y66938D01*
X135578Y67019D01*
X135580Y67101D01*
X128694Y65381D02*
X128694Y70540D01*
X126545Y70540D01*
X126475Y70538D01*
X126406Y70532D01*
X126336Y70523D01*
X126268Y70510D01*
X126200Y70493D01*
X126133Y70472D01*
X126068Y70448D01*
X126003Y70421D01*
X125941Y70390D01*
X125880Y70355D01*
X125821Y70318D01*
X125764Y70277D01*
X125710Y70233D01*
X125658Y70187D01*
X125608Y70137D01*
X125562Y70085D01*
X125518Y70031D01*
X125477Y69974D01*
X125440Y69915D01*
X125405Y69854D01*
X125374Y69792D01*
X125347Y69728D01*
X125323Y69662D01*
X125302Y69595D01*
X125285Y69527D01*
X125272Y69459D01*
X125263Y69390D01*
X125257Y69320D01*
X125255Y69250D01*
X125255Y65381D01*
X121165Y68390D02*
X119015Y67530D01*
X121165Y68390D02*
X121225Y68416D01*
X121284Y68446D01*
X121341Y68479D01*
X121396Y68515D01*
X121448Y68555D01*
X121499Y68598D01*
X121546Y68643D01*
X121591Y68692D01*
X121633Y68742D01*
X121671Y68796D01*
X121707Y68851D01*
X121739Y68908D01*
X121768Y68968D01*
X121793Y69028D01*
X121815Y69091D01*
X121833Y69154D01*
X121847Y69218D01*
X121857Y69283D01*
X121863Y69349D01*
X121866Y69415D01*
X121865Y69480D01*
X121859Y69546D01*
X121850Y69611D01*
X121837Y69676D01*
X121821Y69740D01*
X121800Y69802D01*
X121776Y69863D01*
X121749Y69923D01*
X121717Y69981D01*
X121683Y70037D01*
X121645Y70091D01*
X121604Y70143D01*
X121560Y70192D01*
X121514Y70238D01*
X121464Y70282D01*
X121413Y70322D01*
X121359Y70360D01*
X121302Y70394D01*
X121244Y70425D01*
X121184Y70452D01*
X121123Y70476D01*
X121060Y70496D01*
X120996Y70513D01*
X120932Y70525D01*
X120867Y70534D01*
X120801Y70539D01*
X120735Y70540D01*
X120602Y70536D01*
X120469Y70528D01*
X120337Y70517D01*
X120205Y70503D01*
X120073Y70485D01*
X119942Y70463D01*
X119811Y70438D01*
X119681Y70409D01*
X119552Y70376D01*
X119424Y70341D01*
X119297Y70301D01*
X119171Y70258D01*
X119046Y70212D01*
X118923Y70163D01*
X118801Y70110D01*
X119015Y67531D02*
X118955Y67505D01*
X118896Y67475D01*
X118839Y67442D01*
X118784Y67406D01*
X118732Y67366D01*
X118681Y67323D01*
X118634Y67278D01*
X118589Y67229D01*
X118547Y67179D01*
X118509Y67125D01*
X118473Y67070D01*
X118441Y67013D01*
X118412Y66953D01*
X118387Y66893D01*
X118365Y66830D01*
X118347Y66767D01*
X118333Y66703D01*
X118323Y66638D01*
X118317Y66572D01*
X118314Y66506D01*
X118315Y66441D01*
X118321Y66375D01*
X118330Y66310D01*
X118343Y66245D01*
X118359Y66181D01*
X118380Y66119D01*
X118404Y66058D01*
X118431Y65998D01*
X118463Y65940D01*
X118497Y65884D01*
X118535Y65830D01*
X118576Y65778D01*
X118620Y65729D01*
X118666Y65683D01*
X118716Y65639D01*
X118767Y65599D01*
X118821Y65561D01*
X118878Y65527D01*
X118936Y65496D01*
X118996Y65469D01*
X119057Y65445D01*
X119120Y65425D01*
X119184Y65408D01*
X119248Y65396D01*
X119313Y65387D01*
X119379Y65382D01*
X119445Y65381D01*
X119445Y65382D02*
X119618Y65386D01*
X119790Y65395D01*
X119962Y65407D01*
X120133Y65424D01*
X120305Y65445D01*
X120475Y65470D01*
X120645Y65499D01*
X120814Y65531D01*
X120983Y65568D01*
X121150Y65609D01*
X121317Y65654D01*
X121482Y65703D01*
X121647Y65755D01*
X121810Y65812D01*
X115179Y67101D02*
X115179Y68820D01*
X115180Y68820D02*
X115178Y68902D01*
X115172Y68983D01*
X115162Y69065D01*
X115149Y69146D01*
X115132Y69226D01*
X115110Y69305D01*
X115085Y69383D01*
X115057Y69459D01*
X115025Y69535D01*
X114989Y69608D01*
X114950Y69680D01*
X114907Y69750D01*
X114861Y69818D01*
X114812Y69883D01*
X114760Y69946D01*
X114705Y70007D01*
X114647Y70065D01*
X114586Y70120D01*
X114523Y70172D01*
X114458Y70221D01*
X114390Y70267D01*
X114320Y70310D01*
X114248Y70349D01*
X114175Y70385D01*
X114099Y70417D01*
X114023Y70445D01*
X113945Y70470D01*
X113866Y70492D01*
X113786Y70509D01*
X113705Y70522D01*
X113623Y70532D01*
X113542Y70538D01*
X113460Y70540D01*
X113378Y70538D01*
X113297Y70532D01*
X113215Y70522D01*
X113134Y70509D01*
X113054Y70492D01*
X112975Y70470D01*
X112897Y70445D01*
X112821Y70417D01*
X112745Y70385D01*
X112672Y70349D01*
X112600Y70310D01*
X112530Y70267D01*
X112462Y70221D01*
X112397Y70172D01*
X112334Y70120D01*
X112273Y70065D01*
X112215Y70007D01*
X112160Y69946D01*
X112108Y69883D01*
X112059Y69818D01*
X112013Y69750D01*
X111970Y69680D01*
X111931Y69608D01*
X111895Y69535D01*
X111863Y69459D01*
X111835Y69383D01*
X111810Y69305D01*
X111788Y69226D01*
X111771Y69146D01*
X111758Y69065D01*
X111748Y68983D01*
X111742Y68902D01*
X111740Y68820D01*
X111740Y67101D01*
X111742Y67019D01*
X111748Y66938D01*
X111758Y66856D01*
X111771Y66775D01*
X111788Y66695D01*
X111810Y66616D01*
X111835Y66538D01*
X111863Y66462D01*
X111895Y66386D01*
X111931Y66313D01*
X111970Y66241D01*
X112013Y66171D01*
X112059Y66103D01*
X112108Y66038D01*
X112160Y65975D01*
X112215Y65914D01*
X112273Y65856D01*
X112334Y65801D01*
X112397Y65749D01*
X112462Y65700D01*
X112530Y65654D01*
X112600Y65611D01*
X112672Y65572D01*
X112745Y65536D01*
X112821Y65504D01*
X112897Y65476D01*
X112975Y65451D01*
X113054Y65429D01*
X113134Y65412D01*
X113215Y65399D01*
X113297Y65389D01*
X113378Y65383D01*
X113460Y65381D01*
X113542Y65383D01*
X113623Y65389D01*
X113705Y65399D01*
X113786Y65412D01*
X113866Y65429D01*
X113945Y65451D01*
X114023Y65476D01*
X114099Y65504D01*
X114175Y65536D01*
X114248Y65572D01*
X114320Y65611D01*
X114390Y65654D01*
X114458Y65700D01*
X114523Y65749D01*
X114586Y65801D01*
X114647Y65856D01*
X114705Y65914D01*
X114760Y65975D01*
X114812Y66038D01*
X114861Y66103D01*
X114907Y66171D01*
X114950Y66241D01*
X114989Y66313D01*
X115025Y66386D01*
X115057Y66462D01*
X115085Y66538D01*
X115110Y66616D01*
X115132Y66695D01*
X115149Y66775D01*
X115162Y66856D01*
X115172Y66938D01*
X115178Y67019D01*
X115180Y67101D01*
X108459Y66671D02*
X108459Y73119D01*
X108459Y66671D02*
X108457Y66601D01*
X108451Y66532D01*
X108442Y66462D01*
X108429Y66394D01*
X108412Y66326D01*
X108391Y66259D01*
X108367Y66194D01*
X108340Y66129D01*
X108309Y66067D01*
X108274Y66006D01*
X108237Y65947D01*
X108196Y65890D01*
X108152Y65836D01*
X108106Y65784D01*
X108056Y65734D01*
X108004Y65688D01*
X107950Y65644D01*
X107893Y65603D01*
X107834Y65566D01*
X107773Y65531D01*
X107711Y65500D01*
X107647Y65473D01*
X107581Y65449D01*
X107514Y65428D01*
X107446Y65411D01*
X107378Y65398D01*
X107309Y65389D01*
X107239Y65383D01*
X107169Y65381D01*
X103180Y65381D02*
X101030Y65381D01*
X103180Y65381D02*
X103250Y65383D01*
X103319Y65389D01*
X103389Y65398D01*
X103457Y65411D01*
X103525Y65428D01*
X103592Y65449D01*
X103657Y65473D01*
X103722Y65500D01*
X103784Y65531D01*
X103845Y65566D01*
X103904Y65603D01*
X103961Y65644D01*
X104015Y65688D01*
X104067Y65734D01*
X104117Y65784D01*
X104163Y65836D01*
X104207Y65890D01*
X104248Y65947D01*
X104285Y66006D01*
X104320Y66067D01*
X104351Y66129D01*
X104378Y66194D01*
X104402Y66259D01*
X104423Y66326D01*
X104440Y66394D01*
X104453Y66462D01*
X104462Y66532D01*
X104468Y66601D01*
X104470Y66671D01*
X104470Y68820D01*
X104468Y68902D01*
X104462Y68983D01*
X104452Y69065D01*
X104439Y69146D01*
X104422Y69226D01*
X104400Y69305D01*
X104375Y69383D01*
X104347Y69459D01*
X104315Y69535D01*
X104279Y69608D01*
X104240Y69680D01*
X104197Y69750D01*
X104151Y69818D01*
X104102Y69883D01*
X104050Y69946D01*
X103995Y70007D01*
X103937Y70065D01*
X103876Y70120D01*
X103813Y70172D01*
X103748Y70221D01*
X103680Y70267D01*
X103610Y70310D01*
X103538Y70349D01*
X103465Y70385D01*
X103389Y70417D01*
X103313Y70445D01*
X103235Y70470D01*
X103156Y70492D01*
X103076Y70509D01*
X102995Y70522D01*
X102913Y70532D01*
X102832Y70538D01*
X102750Y70540D01*
X102668Y70538D01*
X102587Y70532D01*
X102505Y70522D01*
X102424Y70509D01*
X102344Y70492D01*
X102265Y70470D01*
X102187Y70445D01*
X102111Y70417D01*
X102035Y70385D01*
X101962Y70349D01*
X101890Y70310D01*
X101820Y70267D01*
X101752Y70221D01*
X101687Y70172D01*
X101624Y70120D01*
X101563Y70065D01*
X101505Y70007D01*
X101450Y69946D01*
X101398Y69883D01*
X101349Y69818D01*
X101303Y69750D01*
X101260Y69680D01*
X101221Y69608D01*
X101185Y69535D01*
X101153Y69459D01*
X101125Y69383D01*
X101100Y69305D01*
X101078Y69226D01*
X101061Y69146D01*
X101048Y69065D01*
X101038Y68983D01*
X101032Y68902D01*
X101030Y68820D01*
X101030Y67960D01*
X104470Y67960D01*
X97195Y68390D02*
X95045Y67530D01*
X97195Y68390D02*
X97255Y68416D01*
X97314Y68446D01*
X97371Y68479D01*
X97426Y68515D01*
X97478Y68555D01*
X97529Y68598D01*
X97576Y68643D01*
X97621Y68692D01*
X97663Y68742D01*
X97701Y68796D01*
X97737Y68851D01*
X97769Y68908D01*
X97798Y68968D01*
X97823Y69028D01*
X97845Y69091D01*
X97863Y69154D01*
X97877Y69218D01*
X97887Y69283D01*
X97893Y69349D01*
X97896Y69415D01*
X97895Y69480D01*
X97889Y69546D01*
X97880Y69611D01*
X97867Y69676D01*
X97851Y69740D01*
X97830Y69802D01*
X97806Y69863D01*
X97779Y69923D01*
X97747Y69981D01*
X97713Y70037D01*
X97675Y70091D01*
X97634Y70143D01*
X97590Y70192D01*
X97544Y70238D01*
X97494Y70282D01*
X97443Y70322D01*
X97389Y70360D01*
X97332Y70394D01*
X97274Y70425D01*
X97214Y70452D01*
X97153Y70476D01*
X97090Y70496D01*
X97026Y70513D01*
X96962Y70525D01*
X96897Y70534D01*
X96831Y70539D01*
X96765Y70540D01*
X96632Y70536D01*
X96499Y70528D01*
X96367Y70517D01*
X96235Y70503D01*
X96103Y70485D01*
X95972Y70463D01*
X95841Y70438D01*
X95711Y70409D01*
X95582Y70376D01*
X95454Y70341D01*
X95327Y70301D01*
X95201Y70258D01*
X95076Y70212D01*
X94953Y70163D01*
X94831Y70110D01*
X95045Y67531D02*
X94985Y67505D01*
X94926Y67475D01*
X94869Y67442D01*
X94814Y67406D01*
X94762Y67366D01*
X94711Y67323D01*
X94664Y67278D01*
X94619Y67229D01*
X94577Y67179D01*
X94539Y67125D01*
X94503Y67070D01*
X94471Y67013D01*
X94442Y66953D01*
X94417Y66893D01*
X94395Y66830D01*
X94377Y66767D01*
X94363Y66703D01*
X94353Y66638D01*
X94347Y66572D01*
X94344Y66506D01*
X94345Y66441D01*
X94351Y66375D01*
X94360Y66310D01*
X94373Y66245D01*
X94389Y66181D01*
X94410Y66119D01*
X94434Y66058D01*
X94461Y65998D01*
X94493Y65940D01*
X94527Y65884D01*
X94565Y65830D01*
X94606Y65778D01*
X94650Y65729D01*
X94696Y65683D01*
X94746Y65639D01*
X94797Y65599D01*
X94851Y65561D01*
X94908Y65527D01*
X94966Y65496D01*
X95026Y65469D01*
X95087Y65445D01*
X95150Y65425D01*
X95214Y65408D01*
X95278Y65396D01*
X95343Y65387D01*
X95409Y65382D01*
X95475Y65381D01*
X95475Y65382D02*
X95648Y65386D01*
X95820Y65395D01*
X95992Y65407D01*
X96163Y65424D01*
X96335Y65445D01*
X96505Y65470D01*
X96675Y65499D01*
X96844Y65531D01*
X97013Y65568D01*
X97180Y65609D01*
X97347Y65654D01*
X97512Y65703D01*
X97677Y65755D01*
X97840Y65812D01*
X90955Y66671D02*
X90955Y70540D01*
X90955Y66671D02*
X90953Y66601D01*
X90947Y66532D01*
X90938Y66462D01*
X90925Y66394D01*
X90908Y66326D01*
X90887Y66259D01*
X90863Y66194D01*
X90836Y66129D01*
X90805Y66067D01*
X90770Y66006D01*
X90733Y65947D01*
X90692Y65890D01*
X90648Y65836D01*
X90602Y65784D01*
X90552Y65734D01*
X90500Y65688D01*
X90446Y65644D01*
X90389Y65603D01*
X90330Y65566D01*
X90269Y65531D01*
X90207Y65500D01*
X90143Y65473D01*
X90077Y65449D01*
X90010Y65428D01*
X89942Y65411D01*
X89874Y65398D01*
X89805Y65389D01*
X89735Y65383D01*
X89665Y65381D01*
X87515Y65381D01*
X87515Y70540D01*
X83815Y70540D02*
X83815Y65381D01*
X83815Y70540D02*
X81665Y70540D01*
X81595Y70538D01*
X81526Y70532D01*
X81456Y70523D01*
X81388Y70510D01*
X81320Y70493D01*
X81253Y70472D01*
X81188Y70448D01*
X81123Y70421D01*
X81061Y70390D01*
X81000Y70355D01*
X80941Y70318D01*
X80884Y70277D01*
X80830Y70233D01*
X80778Y70187D01*
X80728Y70137D01*
X80682Y70085D01*
X80638Y70031D01*
X80597Y69974D01*
X80560Y69915D01*
X80525Y69854D01*
X80494Y69792D01*
X80467Y69728D01*
X80443Y69662D01*
X80422Y69595D01*
X80405Y69527D01*
X80392Y69459D01*
X80383Y69390D01*
X80377Y69320D01*
X80375Y69250D01*
X80375Y65381D01*
X76839Y66671D02*
X76839Y73119D01*
X76839Y66671D02*
X76837Y66601D01*
X76831Y66532D01*
X76822Y66462D01*
X76809Y66394D01*
X76792Y66326D01*
X76771Y66259D01*
X76747Y66194D01*
X76720Y66129D01*
X76689Y66067D01*
X76654Y66006D01*
X76617Y65947D01*
X76576Y65890D01*
X76532Y65836D01*
X76486Y65784D01*
X76436Y65734D01*
X76384Y65688D01*
X76330Y65644D01*
X76273Y65603D01*
X76214Y65566D01*
X76153Y65531D01*
X76091Y65500D01*
X76027Y65473D01*
X75961Y65449D01*
X75894Y65428D01*
X75826Y65411D01*
X75758Y65398D01*
X75689Y65389D01*
X75619Y65383D01*
X75549Y65381D01*
X71560Y65381D02*
X69411Y65381D01*
X71560Y65381D02*
X71630Y65383D01*
X71699Y65389D01*
X71769Y65398D01*
X71837Y65411D01*
X71905Y65428D01*
X71972Y65449D01*
X72037Y65473D01*
X72102Y65500D01*
X72164Y65531D01*
X72225Y65566D01*
X72284Y65603D01*
X72341Y65644D01*
X72395Y65688D01*
X72447Y65734D01*
X72497Y65784D01*
X72543Y65836D01*
X72587Y65890D01*
X72628Y65947D01*
X72665Y66006D01*
X72700Y66067D01*
X72731Y66129D01*
X72758Y66194D01*
X72782Y66259D01*
X72803Y66326D01*
X72820Y66394D01*
X72833Y66462D01*
X72842Y66532D01*
X72848Y66601D01*
X72850Y66671D01*
X72850Y68820D01*
X72848Y68902D01*
X72842Y68983D01*
X72832Y69065D01*
X72819Y69146D01*
X72802Y69226D01*
X72780Y69305D01*
X72755Y69383D01*
X72727Y69459D01*
X72695Y69535D01*
X72659Y69608D01*
X72620Y69680D01*
X72577Y69750D01*
X72531Y69818D01*
X72482Y69883D01*
X72430Y69946D01*
X72375Y70007D01*
X72317Y70065D01*
X72256Y70120D01*
X72193Y70172D01*
X72128Y70221D01*
X72060Y70267D01*
X71990Y70310D01*
X71918Y70349D01*
X71845Y70385D01*
X71769Y70417D01*
X71693Y70445D01*
X71615Y70470D01*
X71536Y70492D01*
X71456Y70509D01*
X71375Y70522D01*
X71293Y70532D01*
X71212Y70538D01*
X71130Y70540D01*
X71048Y70538D01*
X70967Y70532D01*
X70885Y70522D01*
X70804Y70509D01*
X70724Y70492D01*
X70645Y70470D01*
X70567Y70445D01*
X70491Y70417D01*
X70415Y70385D01*
X70342Y70349D01*
X70270Y70310D01*
X70200Y70267D01*
X70132Y70221D01*
X70067Y70172D01*
X70004Y70120D01*
X69943Y70065D01*
X69885Y70007D01*
X69830Y69946D01*
X69778Y69883D01*
X69729Y69818D01*
X69683Y69750D01*
X69640Y69680D01*
X69601Y69608D01*
X69565Y69535D01*
X69533Y69459D01*
X69505Y69383D01*
X69480Y69305D01*
X69458Y69226D01*
X69441Y69146D01*
X69428Y69065D01*
X69418Y68983D01*
X69412Y68902D01*
X69410Y68820D01*
X69411Y68820D02*
X69411Y67960D01*
X72850Y67960D01*
X64757Y68390D02*
X62822Y68390D01*
X64757Y68391D02*
X64833Y68389D01*
X64909Y68383D01*
X64985Y68374D01*
X65060Y68360D01*
X65134Y68343D01*
X65208Y68322D01*
X65280Y68297D01*
X65351Y68269D01*
X65420Y68237D01*
X65487Y68202D01*
X65553Y68163D01*
X65617Y68121D01*
X65678Y68076D01*
X65737Y68028D01*
X65794Y67977D01*
X65848Y67923D01*
X65899Y67866D01*
X65947Y67807D01*
X65992Y67746D01*
X66034Y67682D01*
X66073Y67616D01*
X66108Y67549D01*
X66140Y67480D01*
X66168Y67409D01*
X66193Y67337D01*
X66214Y67263D01*
X66231Y67189D01*
X66245Y67114D01*
X66254Y67038D01*
X66260Y66962D01*
X66262Y66886D01*
X66260Y66810D01*
X66254Y66734D01*
X66245Y66658D01*
X66231Y66583D01*
X66214Y66509D01*
X66193Y66435D01*
X66168Y66363D01*
X66140Y66292D01*
X66108Y66223D01*
X66073Y66156D01*
X66034Y66090D01*
X65992Y66026D01*
X65947Y65965D01*
X65899Y65906D01*
X65848Y65849D01*
X65794Y65795D01*
X65737Y65744D01*
X65678Y65696D01*
X65617Y65651D01*
X65553Y65609D01*
X65487Y65570D01*
X65420Y65535D01*
X65351Y65503D01*
X65280Y65475D01*
X65208Y65450D01*
X65134Y65429D01*
X65060Y65412D01*
X64985Y65398D01*
X64909Y65389D01*
X64833Y65383D01*
X64757Y65381D01*
X62822Y65381D01*
X62822Y69250D01*
X62824Y69320D01*
X62830Y69389D01*
X62839Y69459D01*
X62852Y69527D01*
X62869Y69595D01*
X62890Y69662D01*
X62914Y69727D01*
X62941Y69792D01*
X62972Y69854D01*
X63007Y69915D01*
X63044Y69974D01*
X63085Y70031D01*
X63129Y70085D01*
X63175Y70137D01*
X63225Y70187D01*
X63277Y70233D01*
X63331Y70277D01*
X63388Y70318D01*
X63447Y70355D01*
X63508Y70390D01*
X63570Y70421D01*
X63635Y70448D01*
X63700Y70472D01*
X63767Y70493D01*
X63835Y70510D01*
X63903Y70523D01*
X63973Y70532D01*
X64042Y70538D01*
X64112Y70540D01*
X65832Y70540D01*
X58690Y68390D02*
X56540Y67530D01*
X58690Y68390D02*
X58750Y68416D01*
X58809Y68446D01*
X58866Y68479D01*
X58921Y68515D01*
X58973Y68555D01*
X59024Y68598D01*
X59071Y68643D01*
X59116Y68692D01*
X59158Y68742D01*
X59196Y68796D01*
X59232Y68851D01*
X59264Y68908D01*
X59293Y68968D01*
X59318Y69028D01*
X59340Y69091D01*
X59358Y69154D01*
X59372Y69218D01*
X59382Y69283D01*
X59388Y69349D01*
X59391Y69415D01*
X59390Y69480D01*
X59384Y69546D01*
X59375Y69611D01*
X59362Y69676D01*
X59346Y69740D01*
X59325Y69802D01*
X59301Y69863D01*
X59274Y69923D01*
X59242Y69981D01*
X59208Y70037D01*
X59170Y70091D01*
X59129Y70143D01*
X59085Y70192D01*
X59039Y70238D01*
X58989Y70282D01*
X58938Y70322D01*
X58884Y70360D01*
X58827Y70394D01*
X58769Y70425D01*
X58709Y70452D01*
X58648Y70476D01*
X58585Y70496D01*
X58521Y70513D01*
X58457Y70525D01*
X58392Y70534D01*
X58326Y70539D01*
X58260Y70540D01*
X58127Y70536D01*
X57994Y70528D01*
X57862Y70517D01*
X57730Y70503D01*
X57598Y70485D01*
X57467Y70463D01*
X57336Y70438D01*
X57206Y70409D01*
X57077Y70376D01*
X56949Y70341D01*
X56822Y70301D01*
X56696Y70258D01*
X56571Y70212D01*
X56448Y70163D01*
X56326Y70110D01*
X56540Y67531D02*
X56480Y67505D01*
X56421Y67475D01*
X56364Y67442D01*
X56309Y67406D01*
X56257Y67366D01*
X56206Y67323D01*
X56159Y67278D01*
X56114Y67229D01*
X56072Y67179D01*
X56034Y67125D01*
X55998Y67070D01*
X55966Y67013D01*
X55937Y66953D01*
X55912Y66893D01*
X55890Y66830D01*
X55872Y66767D01*
X55858Y66703D01*
X55848Y66638D01*
X55842Y66572D01*
X55839Y66506D01*
X55840Y66441D01*
X55846Y66375D01*
X55855Y66310D01*
X55868Y66245D01*
X55884Y66181D01*
X55905Y66119D01*
X55929Y66058D01*
X55956Y65998D01*
X55988Y65940D01*
X56022Y65884D01*
X56060Y65830D01*
X56101Y65778D01*
X56145Y65729D01*
X56191Y65683D01*
X56241Y65639D01*
X56292Y65599D01*
X56346Y65561D01*
X56403Y65527D01*
X56461Y65496D01*
X56521Y65469D01*
X56582Y65445D01*
X56645Y65425D01*
X56709Y65408D01*
X56773Y65396D01*
X56838Y65387D01*
X56904Y65382D01*
X56970Y65381D01*
X56970Y65382D02*
X57143Y65386D01*
X57315Y65395D01*
X57487Y65407D01*
X57658Y65424D01*
X57830Y65445D01*
X58000Y65470D01*
X58170Y65499D01*
X58339Y65531D01*
X58508Y65568D01*
X58675Y65609D01*
X58842Y65654D01*
X59007Y65703D01*
X59172Y65755D01*
X59335Y65812D01*
X52450Y65381D02*
X52450Y73119D01*
X52450Y70540D02*
X50300Y70540D01*
X50230Y70538D01*
X50161Y70532D01*
X50091Y70523D01*
X50023Y70510D01*
X49955Y70493D01*
X49888Y70472D01*
X49823Y70448D01*
X49758Y70421D01*
X49696Y70390D01*
X49635Y70355D01*
X49576Y70318D01*
X49519Y70277D01*
X49465Y70233D01*
X49413Y70187D01*
X49363Y70137D01*
X49317Y70085D01*
X49273Y70031D01*
X49232Y69974D01*
X49195Y69915D01*
X49160Y69854D01*
X49129Y69792D01*
X49102Y69728D01*
X49078Y69662D01*
X49057Y69595D01*
X49040Y69527D01*
X49027Y69459D01*
X49018Y69390D01*
X49012Y69320D01*
X49010Y69250D01*
X49011Y69250D02*
X49011Y65381D01*
X44275Y65381D02*
X42126Y65381D01*
X44275Y65381D02*
X44345Y65383D01*
X44414Y65389D01*
X44484Y65398D01*
X44552Y65411D01*
X44620Y65428D01*
X44687Y65449D01*
X44752Y65473D01*
X44817Y65500D01*
X44879Y65531D01*
X44940Y65566D01*
X44999Y65603D01*
X45056Y65644D01*
X45110Y65688D01*
X45162Y65734D01*
X45212Y65784D01*
X45258Y65836D01*
X45302Y65890D01*
X45343Y65947D01*
X45380Y66006D01*
X45415Y66067D01*
X45446Y66129D01*
X45473Y66194D01*
X45497Y66259D01*
X45518Y66326D01*
X45535Y66394D01*
X45548Y66462D01*
X45557Y66532D01*
X45563Y66601D01*
X45565Y66671D01*
X45565Y68820D01*
X45563Y68902D01*
X45557Y68983D01*
X45547Y69065D01*
X45534Y69146D01*
X45517Y69226D01*
X45495Y69305D01*
X45470Y69383D01*
X45442Y69459D01*
X45410Y69535D01*
X45374Y69608D01*
X45335Y69680D01*
X45292Y69750D01*
X45246Y69818D01*
X45197Y69883D01*
X45145Y69946D01*
X45090Y70007D01*
X45032Y70065D01*
X44971Y70120D01*
X44908Y70172D01*
X44843Y70221D01*
X44775Y70267D01*
X44705Y70310D01*
X44633Y70349D01*
X44560Y70385D01*
X44484Y70417D01*
X44408Y70445D01*
X44330Y70470D01*
X44251Y70492D01*
X44171Y70509D01*
X44090Y70522D01*
X44008Y70532D01*
X43927Y70538D01*
X43845Y70540D01*
X43763Y70538D01*
X43682Y70532D01*
X43600Y70522D01*
X43519Y70509D01*
X43439Y70492D01*
X43360Y70470D01*
X43282Y70445D01*
X43206Y70417D01*
X43130Y70385D01*
X43057Y70349D01*
X42985Y70310D01*
X42915Y70267D01*
X42847Y70221D01*
X42782Y70172D01*
X42719Y70120D01*
X42658Y70065D01*
X42600Y70007D01*
X42545Y69946D01*
X42493Y69883D01*
X42444Y69818D01*
X42398Y69750D01*
X42355Y69680D01*
X42316Y69608D01*
X42280Y69535D01*
X42248Y69459D01*
X42220Y69383D01*
X42195Y69305D01*
X42173Y69226D01*
X42156Y69146D01*
X42143Y69065D01*
X42133Y68983D01*
X42127Y68902D01*
X42125Y68820D01*
X42126Y68820D02*
X42126Y67960D01*
X45565Y67960D01*
X35537Y65381D02*
X35537Y73119D01*
X35537Y65381D02*
X37687Y65381D01*
X37757Y65383D01*
X37826Y65389D01*
X37896Y65398D01*
X37964Y65411D01*
X38032Y65428D01*
X38099Y65449D01*
X38164Y65473D01*
X38229Y65500D01*
X38291Y65531D01*
X38352Y65566D01*
X38411Y65603D01*
X38468Y65644D01*
X38522Y65688D01*
X38574Y65734D01*
X38624Y65784D01*
X38670Y65836D01*
X38714Y65890D01*
X38755Y65947D01*
X38792Y66006D01*
X38827Y66067D01*
X38858Y66129D01*
X38885Y66194D01*
X38909Y66259D01*
X38930Y66326D01*
X38947Y66394D01*
X38960Y66462D01*
X38969Y66532D01*
X38975Y66601D01*
X38977Y66671D01*
X38977Y69250D01*
X38975Y69320D01*
X38969Y69389D01*
X38960Y69459D01*
X38947Y69527D01*
X38930Y69595D01*
X38909Y69662D01*
X38885Y69727D01*
X38858Y69792D01*
X38827Y69854D01*
X38792Y69915D01*
X38755Y69974D01*
X38714Y70031D01*
X38670Y70085D01*
X38624Y70137D01*
X38574Y70187D01*
X38522Y70233D01*
X38468Y70277D01*
X38411Y70318D01*
X38352Y70355D01*
X38291Y70390D01*
X38229Y70421D01*
X38164Y70448D01*
X38099Y70472D01*
X38032Y70493D01*
X37964Y70510D01*
X37896Y70523D01*
X37826Y70532D01*
X37757Y70538D01*
X37687Y70540D01*
X35537Y70540D01*
X32330Y65811D02*
X32330Y65381D01*
X32330Y65811D02*
X31900Y65811D01*
X31900Y65381D01*
X32330Y65381D01*
X27691Y65381D02*
X25971Y65381D01*
X27691Y65381D02*
X27761Y65383D01*
X27830Y65389D01*
X27900Y65398D01*
X27968Y65411D01*
X28036Y65428D01*
X28103Y65449D01*
X28168Y65473D01*
X28233Y65500D01*
X28295Y65531D01*
X28356Y65566D01*
X28415Y65603D01*
X28472Y65644D01*
X28526Y65688D01*
X28578Y65734D01*
X28628Y65784D01*
X28674Y65836D01*
X28718Y65890D01*
X28759Y65947D01*
X28796Y66006D01*
X28831Y66067D01*
X28862Y66129D01*
X28889Y66194D01*
X28913Y66259D01*
X28934Y66326D01*
X28951Y66394D01*
X28964Y66462D01*
X28973Y66532D01*
X28979Y66601D01*
X28981Y66671D01*
X28980Y66671D02*
X28980Y69250D01*
X28981Y69250D02*
X28979Y69320D01*
X28973Y69389D01*
X28964Y69459D01*
X28951Y69527D01*
X28934Y69595D01*
X28913Y69662D01*
X28889Y69727D01*
X28862Y69792D01*
X28831Y69854D01*
X28796Y69915D01*
X28759Y69974D01*
X28718Y70031D01*
X28674Y70085D01*
X28628Y70137D01*
X28578Y70187D01*
X28526Y70233D01*
X28472Y70277D01*
X28415Y70318D01*
X28356Y70355D01*
X28295Y70390D01*
X28233Y70421D01*
X28168Y70448D01*
X28103Y70472D01*
X28036Y70493D01*
X27968Y70510D01*
X27900Y70523D01*
X27830Y70532D01*
X27761Y70538D01*
X27691Y70540D01*
X25971Y70540D01*
X23125Y68820D02*
X23125Y67101D01*
X23125Y68820D02*
X23123Y68902D01*
X23117Y68983D01*
X23107Y69065D01*
X23094Y69146D01*
X23077Y69226D01*
X23055Y69305D01*
X23030Y69383D01*
X23002Y69459D01*
X22970Y69535D01*
X22934Y69608D01*
X22895Y69680D01*
X22852Y69750D01*
X22806Y69818D01*
X22757Y69883D01*
X22705Y69946D01*
X22650Y70007D01*
X22592Y70065D01*
X22531Y70120D01*
X22468Y70172D01*
X22403Y70221D01*
X22335Y70267D01*
X22265Y70310D01*
X22193Y70349D01*
X22120Y70385D01*
X22044Y70417D01*
X21968Y70445D01*
X21890Y70470D01*
X21811Y70492D01*
X21731Y70509D01*
X21650Y70522D01*
X21568Y70532D01*
X21487Y70538D01*
X21405Y70540D01*
X21323Y70538D01*
X21242Y70532D01*
X21160Y70522D01*
X21079Y70509D01*
X20999Y70492D01*
X20920Y70470D01*
X20842Y70445D01*
X20766Y70417D01*
X20690Y70385D01*
X20617Y70349D01*
X20545Y70310D01*
X20475Y70267D01*
X20407Y70221D01*
X20342Y70172D01*
X20279Y70120D01*
X20218Y70065D01*
X20160Y70007D01*
X20105Y69946D01*
X20053Y69883D01*
X20004Y69818D01*
X19958Y69750D01*
X19915Y69680D01*
X19876Y69608D01*
X19840Y69535D01*
X19808Y69459D01*
X19780Y69383D01*
X19755Y69305D01*
X19733Y69226D01*
X19716Y69146D01*
X19703Y69065D01*
X19693Y68983D01*
X19687Y68902D01*
X19685Y68820D01*
X19686Y68820D02*
X19686Y67101D01*
X19685Y67101D02*
X19687Y67019D01*
X19693Y66938D01*
X19703Y66856D01*
X19716Y66775D01*
X19733Y66695D01*
X19755Y66616D01*
X19780Y66538D01*
X19808Y66462D01*
X19840Y66386D01*
X19876Y66313D01*
X19915Y66241D01*
X19958Y66171D01*
X20004Y66103D01*
X20053Y66038D01*
X20105Y65975D01*
X20160Y65914D01*
X20218Y65856D01*
X20279Y65801D01*
X20342Y65749D01*
X20407Y65700D01*
X20475Y65654D01*
X20545Y65611D01*
X20617Y65572D01*
X20690Y65536D01*
X20766Y65504D01*
X20842Y65476D01*
X20920Y65451D01*
X20999Y65429D01*
X21079Y65412D01*
X21160Y65399D01*
X21242Y65389D01*
X21323Y65383D01*
X21405Y65381D01*
X21487Y65383D01*
X21568Y65389D01*
X21650Y65399D01*
X21731Y65412D01*
X21811Y65429D01*
X21890Y65451D01*
X21968Y65476D01*
X22044Y65504D01*
X22120Y65536D01*
X22193Y65572D01*
X22265Y65611D01*
X22335Y65654D01*
X22403Y65700D01*
X22468Y65749D01*
X22531Y65801D01*
X22592Y65856D01*
X22650Y65914D01*
X22705Y65975D01*
X22757Y66038D01*
X22806Y66103D01*
X22852Y66171D01*
X22895Y66241D01*
X22934Y66313D01*
X22970Y66386D01*
X23002Y66462D01*
X23030Y66538D01*
X23055Y66616D01*
X23077Y66695D01*
X23094Y66775D01*
X23107Y66856D01*
X23117Y66938D01*
X23123Y67019D01*
X23125Y67101D01*
X16080Y65381D02*
X16080Y70540D01*
X12211Y70540D01*
X12141Y70538D01*
X12072Y70532D01*
X12002Y70523D01*
X11934Y70510D01*
X11866Y70493D01*
X11799Y70472D01*
X11734Y70448D01*
X11669Y70421D01*
X11607Y70390D01*
X11546Y70355D01*
X11487Y70318D01*
X11430Y70277D01*
X11376Y70233D01*
X11324Y70187D01*
X11274Y70137D01*
X11228Y70085D01*
X11184Y70031D01*
X11143Y69974D01*
X11106Y69915D01*
X11071Y69854D01*
X11040Y69792D01*
X11013Y69728D01*
X10989Y69662D01*
X10968Y69595D01*
X10951Y69527D01*
X10938Y69459D01*
X10929Y69390D01*
X10923Y69320D01*
X10921Y69250D01*
X10921Y65381D01*
X13500Y65381D02*
X13500Y70540D01*
X137809Y50381D02*
X139529Y50381D01*
X139611Y50383D01*
X139692Y50389D01*
X139774Y50399D01*
X139855Y50412D01*
X139935Y50429D01*
X140014Y50451D01*
X140092Y50476D01*
X140168Y50504D01*
X140244Y50536D01*
X140317Y50572D01*
X140389Y50611D01*
X140459Y50654D01*
X140527Y50700D01*
X140592Y50749D01*
X140655Y50801D01*
X140716Y50856D01*
X140774Y50914D01*
X140829Y50975D01*
X140881Y51038D01*
X140930Y51103D01*
X140976Y51171D01*
X141019Y51241D01*
X141058Y51313D01*
X141094Y51387D01*
X141126Y51462D01*
X141154Y51538D01*
X141179Y51616D01*
X141201Y51696D01*
X141218Y51776D01*
X141231Y51856D01*
X141241Y51938D01*
X141247Y52019D01*
X141249Y52101D01*
X141249Y56399D01*
X141247Y56481D01*
X141241Y56562D01*
X141231Y56644D01*
X141218Y56725D01*
X141201Y56804D01*
X141179Y56884D01*
X141154Y56962D01*
X141126Y57038D01*
X141094Y57113D01*
X141058Y57187D01*
X141019Y57259D01*
X140976Y57329D01*
X140930Y57397D01*
X140881Y57462D01*
X140829Y57525D01*
X140774Y57586D01*
X140716Y57644D01*
X140655Y57699D01*
X140592Y57751D01*
X140527Y57800D01*
X140459Y57846D01*
X140389Y57889D01*
X140317Y57928D01*
X140244Y57964D01*
X140168Y57996D01*
X140092Y58024D01*
X140014Y58049D01*
X139935Y58071D01*
X139855Y58088D01*
X139774Y58101D01*
X139693Y58111D01*
X139611Y58117D01*
X139529Y58119D01*
X137809Y58119D01*
X134930Y53820D02*
X134930Y52101D01*
X134931Y53820D02*
X134929Y53902D01*
X134923Y53983D01*
X134913Y54065D01*
X134900Y54146D01*
X134883Y54226D01*
X134861Y54305D01*
X134836Y54383D01*
X134808Y54459D01*
X134776Y54535D01*
X134740Y54608D01*
X134701Y54680D01*
X134658Y54750D01*
X134612Y54818D01*
X134563Y54883D01*
X134511Y54946D01*
X134456Y55007D01*
X134398Y55065D01*
X134337Y55120D01*
X134274Y55172D01*
X134209Y55221D01*
X134141Y55267D01*
X134071Y55310D01*
X133999Y55349D01*
X133926Y55385D01*
X133850Y55417D01*
X133774Y55445D01*
X133696Y55470D01*
X133617Y55492D01*
X133537Y55509D01*
X133456Y55522D01*
X133374Y55532D01*
X133293Y55538D01*
X133211Y55540D01*
X133129Y55538D01*
X133048Y55532D01*
X132966Y55522D01*
X132885Y55509D01*
X132805Y55492D01*
X132726Y55470D01*
X132648Y55445D01*
X132572Y55417D01*
X132496Y55385D01*
X132423Y55349D01*
X132351Y55310D01*
X132281Y55267D01*
X132213Y55221D01*
X132148Y55172D01*
X132085Y55120D01*
X132024Y55065D01*
X131966Y55007D01*
X131911Y54946D01*
X131859Y54883D01*
X131810Y54818D01*
X131764Y54750D01*
X131721Y54680D01*
X131682Y54608D01*
X131646Y54535D01*
X131614Y54459D01*
X131586Y54383D01*
X131561Y54305D01*
X131539Y54226D01*
X131522Y54146D01*
X131509Y54065D01*
X131499Y53983D01*
X131493Y53902D01*
X131491Y53820D01*
X131491Y52101D01*
X131493Y52019D01*
X131499Y51938D01*
X131509Y51856D01*
X131522Y51775D01*
X131539Y51695D01*
X131561Y51616D01*
X131586Y51538D01*
X131614Y51462D01*
X131646Y51386D01*
X131682Y51313D01*
X131721Y51241D01*
X131764Y51171D01*
X131810Y51103D01*
X131859Y51038D01*
X131911Y50975D01*
X131966Y50914D01*
X132024Y50856D01*
X132085Y50801D01*
X132148Y50749D01*
X132213Y50700D01*
X132281Y50654D01*
X132351Y50611D01*
X132423Y50572D01*
X132496Y50536D01*
X132572Y50504D01*
X132648Y50476D01*
X132726Y50451D01*
X132805Y50429D01*
X132885Y50412D01*
X132966Y50399D01*
X133048Y50389D01*
X133129Y50383D01*
X133211Y50381D01*
X133293Y50383D01*
X133374Y50389D01*
X133456Y50399D01*
X133537Y50412D01*
X133617Y50429D01*
X133696Y50451D01*
X133774Y50476D01*
X133850Y50504D01*
X133926Y50536D01*
X133999Y50572D01*
X134071Y50611D01*
X134141Y50654D01*
X134209Y50700D01*
X134274Y50749D01*
X134337Y50801D01*
X134398Y50856D01*
X134456Y50914D01*
X134511Y50975D01*
X134563Y51038D01*
X134612Y51103D01*
X134658Y51171D01*
X134701Y51241D01*
X134740Y51313D01*
X134776Y51386D01*
X134808Y51462D01*
X134836Y51538D01*
X134861Y51616D01*
X134883Y51695D01*
X134900Y51775D01*
X134913Y51856D01*
X134923Y51938D01*
X134929Y52019D01*
X134931Y52101D01*
X124903Y50381D02*
X124903Y58119D01*
X124903Y50381D02*
X127052Y50381D01*
X127122Y50383D01*
X127191Y50389D01*
X127261Y50398D01*
X127329Y50411D01*
X127397Y50428D01*
X127464Y50449D01*
X127529Y50473D01*
X127594Y50500D01*
X127656Y50531D01*
X127717Y50566D01*
X127776Y50603D01*
X127833Y50644D01*
X127887Y50688D01*
X127939Y50734D01*
X127989Y50784D01*
X128035Y50836D01*
X128079Y50890D01*
X128120Y50947D01*
X128157Y51006D01*
X128192Y51067D01*
X128223Y51129D01*
X128250Y51194D01*
X128274Y51259D01*
X128295Y51326D01*
X128312Y51394D01*
X128325Y51462D01*
X128334Y51532D01*
X128340Y51601D01*
X128342Y51671D01*
X128342Y54250D01*
X128340Y54320D01*
X128334Y54389D01*
X128325Y54459D01*
X128312Y54527D01*
X128295Y54595D01*
X128274Y54662D01*
X128250Y54727D01*
X128223Y54792D01*
X128192Y54854D01*
X128157Y54915D01*
X128120Y54974D01*
X128079Y55031D01*
X128035Y55085D01*
X127989Y55137D01*
X127939Y55187D01*
X127887Y55233D01*
X127833Y55277D01*
X127776Y55318D01*
X127717Y55355D01*
X127656Y55390D01*
X127594Y55421D01*
X127529Y55448D01*
X127464Y55472D01*
X127397Y55493D01*
X127329Y55510D01*
X127261Y55523D01*
X127191Y55532D01*
X127122Y55538D01*
X127052Y55540D01*
X124903Y55540D01*
X120126Y50381D02*
X117976Y50381D01*
X120126Y50381D02*
X120196Y50383D01*
X120265Y50389D01*
X120335Y50398D01*
X120403Y50411D01*
X120471Y50428D01*
X120538Y50449D01*
X120603Y50473D01*
X120668Y50500D01*
X120730Y50531D01*
X120791Y50566D01*
X120850Y50603D01*
X120907Y50644D01*
X120961Y50688D01*
X121013Y50734D01*
X121063Y50784D01*
X121109Y50836D01*
X121153Y50890D01*
X121194Y50947D01*
X121231Y51006D01*
X121266Y51067D01*
X121297Y51129D01*
X121324Y51194D01*
X121348Y51259D01*
X121369Y51326D01*
X121386Y51394D01*
X121399Y51462D01*
X121408Y51532D01*
X121414Y51601D01*
X121416Y51671D01*
X121415Y51671D02*
X121415Y53820D01*
X121416Y53820D02*
X121414Y53902D01*
X121408Y53983D01*
X121398Y54065D01*
X121385Y54146D01*
X121368Y54226D01*
X121346Y54305D01*
X121321Y54383D01*
X121293Y54459D01*
X121261Y54535D01*
X121225Y54608D01*
X121186Y54680D01*
X121143Y54750D01*
X121097Y54818D01*
X121048Y54883D01*
X120996Y54946D01*
X120941Y55007D01*
X120883Y55065D01*
X120822Y55120D01*
X120759Y55172D01*
X120694Y55221D01*
X120626Y55267D01*
X120556Y55310D01*
X120484Y55349D01*
X120411Y55385D01*
X120335Y55417D01*
X120259Y55445D01*
X120181Y55470D01*
X120102Y55492D01*
X120022Y55509D01*
X119941Y55522D01*
X119859Y55532D01*
X119778Y55538D01*
X119696Y55540D01*
X119614Y55538D01*
X119533Y55532D01*
X119451Y55522D01*
X119370Y55509D01*
X119290Y55492D01*
X119211Y55470D01*
X119133Y55445D01*
X119057Y55417D01*
X118981Y55385D01*
X118908Y55349D01*
X118836Y55310D01*
X118766Y55267D01*
X118698Y55221D01*
X118633Y55172D01*
X118570Y55120D01*
X118509Y55065D01*
X118451Y55007D01*
X118396Y54946D01*
X118344Y54883D01*
X118295Y54818D01*
X118249Y54750D01*
X118206Y54680D01*
X118167Y54608D01*
X118131Y54535D01*
X118099Y54459D01*
X118071Y54383D01*
X118046Y54305D01*
X118024Y54226D01*
X118007Y54146D01*
X117994Y54065D01*
X117984Y53983D01*
X117978Y53902D01*
X117976Y53820D01*
X117976Y52960D01*
X121415Y52960D01*
X110408Y50381D02*
X110408Y58119D01*
X110408Y50381D02*
X108259Y50381D01*
X108189Y50383D01*
X108120Y50389D01*
X108050Y50398D01*
X107982Y50411D01*
X107914Y50428D01*
X107847Y50449D01*
X107782Y50473D01*
X107717Y50500D01*
X107655Y50531D01*
X107594Y50566D01*
X107535Y50603D01*
X107478Y50644D01*
X107424Y50688D01*
X107372Y50734D01*
X107322Y50784D01*
X107276Y50836D01*
X107232Y50890D01*
X107191Y50947D01*
X107154Y51006D01*
X107119Y51067D01*
X107088Y51129D01*
X107061Y51194D01*
X107037Y51259D01*
X107016Y51326D01*
X106999Y51394D01*
X106986Y51462D01*
X106977Y51532D01*
X106971Y51601D01*
X106969Y51671D01*
X106969Y54250D01*
X106971Y54320D01*
X106977Y54389D01*
X106986Y54459D01*
X106999Y54527D01*
X107016Y54595D01*
X107037Y54662D01*
X107061Y54727D01*
X107088Y54792D01*
X107119Y54854D01*
X107154Y54915D01*
X107191Y54974D01*
X107232Y55031D01*
X107276Y55085D01*
X107322Y55137D01*
X107372Y55187D01*
X107424Y55233D01*
X107478Y55277D01*
X107535Y55318D01*
X107594Y55355D01*
X107655Y55390D01*
X107717Y55421D01*
X107782Y55448D01*
X107847Y55472D01*
X107914Y55493D01*
X107982Y55510D01*
X108050Y55523D01*
X108120Y55532D01*
X108189Y55538D01*
X108259Y55540D01*
X110408Y55540D01*
X104075Y47802D02*
X103216Y47802D01*
X100636Y55540D01*
X104075Y55540D02*
X102356Y50381D01*
X93165Y54680D02*
X91016Y54680D01*
X91016Y54679D02*
X90925Y54677D01*
X90834Y54671D01*
X90743Y54662D01*
X90653Y54648D01*
X90563Y54631D01*
X90474Y54610D01*
X90387Y54585D01*
X90300Y54556D01*
X90215Y54524D01*
X90131Y54488D01*
X90049Y54449D01*
X89968Y54406D01*
X89889Y54360D01*
X89813Y54310D01*
X89738Y54258D01*
X89666Y54202D01*
X89596Y54143D01*
X89529Y54081D01*
X89465Y54017D01*
X89403Y53950D01*
X89344Y53880D01*
X89288Y53808D01*
X89236Y53733D01*
X89186Y53657D01*
X89140Y53578D01*
X89097Y53497D01*
X89058Y53415D01*
X89022Y53331D01*
X88990Y53246D01*
X88961Y53159D01*
X88936Y53072D01*
X88915Y52983D01*
X88898Y52893D01*
X88884Y52803D01*
X88875Y52712D01*
X88869Y52621D01*
X88867Y52530D01*
X88869Y52439D01*
X88875Y52348D01*
X88884Y52257D01*
X88898Y52167D01*
X88915Y52077D01*
X88936Y51988D01*
X88961Y51901D01*
X88990Y51814D01*
X89022Y51729D01*
X89058Y51645D01*
X89097Y51563D01*
X89140Y51482D01*
X89186Y51403D01*
X89236Y51327D01*
X89288Y51252D01*
X89344Y51180D01*
X89403Y51110D01*
X89465Y51043D01*
X89529Y50979D01*
X89596Y50917D01*
X89666Y50858D01*
X89738Y50802D01*
X89813Y50750D01*
X89889Y50700D01*
X89968Y50654D01*
X90049Y50611D01*
X90131Y50572D01*
X90215Y50536D01*
X90300Y50504D01*
X90387Y50475D01*
X90474Y50450D01*
X90563Y50429D01*
X90653Y50412D01*
X90743Y50398D01*
X90834Y50389D01*
X90925Y50383D01*
X91016Y50381D01*
X93165Y50381D01*
X93165Y58119D01*
X91016Y58119D01*
X90934Y58117D01*
X90853Y58111D01*
X90771Y58101D01*
X90690Y58088D01*
X90610Y58071D01*
X90531Y58049D01*
X90453Y58024D01*
X90377Y57996D01*
X90301Y57964D01*
X90228Y57928D01*
X90156Y57889D01*
X90086Y57846D01*
X90018Y57800D01*
X89953Y57751D01*
X89890Y57699D01*
X89829Y57644D01*
X89771Y57586D01*
X89716Y57525D01*
X89664Y57462D01*
X89615Y57397D01*
X89569Y57329D01*
X89526Y57259D01*
X89487Y57187D01*
X89451Y57114D01*
X89419Y57038D01*
X89391Y56962D01*
X89366Y56884D01*
X89344Y56805D01*
X89327Y56725D01*
X89314Y56644D01*
X89304Y56562D01*
X89298Y56481D01*
X89296Y56399D01*
X89298Y56317D01*
X89304Y56236D01*
X89314Y56154D01*
X89327Y56073D01*
X89344Y55993D01*
X89366Y55914D01*
X89391Y55836D01*
X89419Y55760D01*
X89451Y55684D01*
X89487Y55611D01*
X89526Y55539D01*
X89569Y55469D01*
X89615Y55401D01*
X89664Y55336D01*
X89716Y55273D01*
X89771Y55212D01*
X89829Y55154D01*
X89890Y55099D01*
X89953Y55047D01*
X90018Y54998D01*
X90086Y54952D01*
X90156Y54909D01*
X90228Y54870D01*
X90301Y54834D01*
X90377Y54802D01*
X90453Y54774D01*
X90531Y54749D01*
X90610Y54727D01*
X90690Y54710D01*
X90771Y54697D01*
X90853Y54687D01*
X90934Y54681D01*
X91016Y54679D01*
X85970Y53820D02*
X85970Y52101D01*
X85971Y53820D02*
X85969Y53902D01*
X85963Y53983D01*
X85953Y54065D01*
X85940Y54146D01*
X85923Y54226D01*
X85901Y54305D01*
X85876Y54383D01*
X85848Y54459D01*
X85816Y54535D01*
X85780Y54608D01*
X85741Y54680D01*
X85698Y54750D01*
X85652Y54818D01*
X85603Y54883D01*
X85551Y54946D01*
X85496Y55007D01*
X85438Y55065D01*
X85377Y55120D01*
X85314Y55172D01*
X85249Y55221D01*
X85181Y55267D01*
X85111Y55310D01*
X85039Y55349D01*
X84966Y55385D01*
X84890Y55417D01*
X84814Y55445D01*
X84736Y55470D01*
X84657Y55492D01*
X84577Y55509D01*
X84496Y55522D01*
X84414Y55532D01*
X84333Y55538D01*
X84251Y55540D01*
X84169Y55538D01*
X84088Y55532D01*
X84006Y55522D01*
X83925Y55509D01*
X83845Y55492D01*
X83766Y55470D01*
X83688Y55445D01*
X83612Y55417D01*
X83536Y55385D01*
X83463Y55349D01*
X83391Y55310D01*
X83321Y55267D01*
X83253Y55221D01*
X83188Y55172D01*
X83125Y55120D01*
X83064Y55065D01*
X83006Y55007D01*
X82951Y54946D01*
X82899Y54883D01*
X82850Y54818D01*
X82804Y54750D01*
X82761Y54680D01*
X82722Y54608D01*
X82686Y54535D01*
X82654Y54459D01*
X82626Y54383D01*
X82601Y54305D01*
X82579Y54226D01*
X82562Y54146D01*
X82549Y54065D01*
X82539Y53983D01*
X82533Y53902D01*
X82531Y53820D01*
X82531Y52101D01*
X82533Y52019D01*
X82539Y51938D01*
X82549Y51856D01*
X82562Y51775D01*
X82579Y51695D01*
X82601Y51616D01*
X82626Y51538D01*
X82654Y51462D01*
X82686Y51386D01*
X82722Y51313D01*
X82761Y51241D01*
X82804Y51171D01*
X82850Y51103D01*
X82899Y51038D01*
X82951Y50975D01*
X83006Y50914D01*
X83064Y50856D01*
X83125Y50801D01*
X83188Y50749D01*
X83253Y50700D01*
X83321Y50654D01*
X83391Y50611D01*
X83463Y50572D01*
X83536Y50536D01*
X83612Y50504D01*
X83688Y50476D01*
X83766Y50451D01*
X83845Y50429D01*
X83925Y50412D01*
X84006Y50399D01*
X84088Y50389D01*
X84169Y50383D01*
X84251Y50381D01*
X84333Y50383D01*
X84414Y50389D01*
X84496Y50399D01*
X84577Y50412D01*
X84657Y50429D01*
X84736Y50451D01*
X84814Y50476D01*
X84890Y50504D01*
X84966Y50536D01*
X85039Y50572D01*
X85111Y50611D01*
X85181Y50654D01*
X85249Y50700D01*
X85314Y50749D01*
X85377Y50801D01*
X85438Y50856D01*
X85496Y50914D01*
X85551Y50975D01*
X85603Y51038D01*
X85652Y51103D01*
X85698Y51171D01*
X85741Y51241D01*
X85780Y51313D01*
X85816Y51386D01*
X85848Y51462D01*
X85876Y51538D01*
X85901Y51616D01*
X85923Y51695D01*
X85940Y51775D01*
X85953Y51856D01*
X85963Y51938D01*
X85969Y52019D01*
X85971Y52101D01*
X79038Y50381D02*
X79038Y55540D01*
X76459Y55540D01*
X76459Y54680D01*
X74641Y55540D02*
X72062Y55540D01*
X73781Y58119D02*
X73781Y51671D01*
X73782Y51671D02*
X73780Y51601D01*
X73774Y51532D01*
X73765Y51462D01*
X73752Y51394D01*
X73735Y51326D01*
X73714Y51259D01*
X73690Y51194D01*
X73663Y51129D01*
X73632Y51067D01*
X73597Y51006D01*
X73560Y50947D01*
X73519Y50890D01*
X73475Y50836D01*
X73429Y50784D01*
X73379Y50734D01*
X73327Y50688D01*
X73273Y50644D01*
X73216Y50603D01*
X73157Y50566D01*
X73096Y50531D01*
X73034Y50500D01*
X72969Y50473D01*
X72904Y50449D01*
X72837Y50428D01*
X72769Y50411D01*
X72701Y50398D01*
X72631Y50389D01*
X72562Y50383D01*
X72492Y50381D01*
X72062Y50381D01*
X69206Y50381D02*
X69206Y55540D01*
X69421Y57689D02*
X69421Y58119D01*
X68991Y58119D01*
X68991Y57689D01*
X69421Y57689D01*
X64281Y58119D02*
X66000Y52101D01*
X61701Y52101D01*
X62991Y53820D02*
X62991Y50381D01*
X56631Y53820D02*
X54051Y53820D01*
X56631Y53820D02*
X56713Y53822D01*
X56794Y53828D01*
X56876Y53838D01*
X56957Y53851D01*
X57037Y53868D01*
X57116Y53890D01*
X57194Y53915D01*
X57270Y53943D01*
X57346Y53975D01*
X57419Y54011D01*
X57491Y54050D01*
X57561Y54093D01*
X57629Y54139D01*
X57694Y54188D01*
X57757Y54240D01*
X57818Y54295D01*
X57876Y54353D01*
X57931Y54414D01*
X57983Y54477D01*
X58032Y54542D01*
X58078Y54610D01*
X58121Y54680D01*
X58160Y54752D01*
X58196Y54826D01*
X58228Y54901D01*
X58256Y54977D01*
X58281Y55055D01*
X58303Y55135D01*
X58320Y55215D01*
X58333Y55295D01*
X58343Y55377D01*
X58349Y55458D01*
X58351Y55540D01*
X58350Y55540D02*
X58350Y55970D01*
X58348Y56061D01*
X58342Y56152D01*
X58333Y56243D01*
X58319Y56333D01*
X58302Y56423D01*
X58281Y56512D01*
X58256Y56599D01*
X58227Y56686D01*
X58195Y56771D01*
X58159Y56855D01*
X58120Y56937D01*
X58077Y57018D01*
X58031Y57097D01*
X57981Y57173D01*
X57929Y57248D01*
X57873Y57320D01*
X57814Y57390D01*
X57752Y57457D01*
X57688Y57521D01*
X57621Y57583D01*
X57551Y57642D01*
X57479Y57698D01*
X57404Y57750D01*
X57328Y57800D01*
X57249Y57846D01*
X57168Y57889D01*
X57086Y57928D01*
X57002Y57964D01*
X56917Y57996D01*
X56830Y58025D01*
X56743Y58050D01*
X56654Y58071D01*
X56564Y58088D01*
X56474Y58102D01*
X56383Y58111D01*
X56292Y58117D01*
X56201Y58119D01*
X56110Y58117D01*
X56019Y58111D01*
X55928Y58102D01*
X55838Y58088D01*
X55748Y58071D01*
X55659Y58050D01*
X55572Y58025D01*
X55485Y57996D01*
X55400Y57964D01*
X55316Y57928D01*
X55234Y57889D01*
X55153Y57846D01*
X55074Y57800D01*
X54998Y57750D01*
X54923Y57698D01*
X54851Y57642D01*
X54781Y57583D01*
X54714Y57521D01*
X54650Y57457D01*
X54588Y57390D01*
X54529Y57320D01*
X54473Y57248D01*
X54421Y57173D01*
X54371Y57097D01*
X54325Y57018D01*
X54282Y56937D01*
X54243Y56855D01*
X54207Y56771D01*
X54175Y56686D01*
X54146Y56599D01*
X54121Y56512D01*
X54100Y56423D01*
X54083Y56333D01*
X54069Y56243D01*
X54060Y56152D01*
X54054Y56061D01*
X54052Y55970D01*
X54051Y55970D02*
X54051Y53820D01*
X54052Y53820D02*
X54054Y53705D01*
X54060Y53590D01*
X54069Y53476D01*
X54083Y53362D01*
X54100Y53248D01*
X54121Y53135D01*
X54146Y53023D01*
X54174Y52911D01*
X54206Y52801D01*
X54242Y52692D01*
X54282Y52584D01*
X54325Y52477D01*
X54372Y52372D01*
X54422Y52269D01*
X54475Y52167D01*
X54532Y52067D01*
X54592Y51970D01*
X54656Y51874D01*
X54722Y51780D01*
X54792Y51689D01*
X54865Y51600D01*
X54940Y51513D01*
X55019Y51429D01*
X55100Y51348D01*
X55184Y51269D01*
X55271Y51194D01*
X55360Y51121D01*
X55451Y51051D01*
X55545Y50985D01*
X55641Y50921D01*
X55738Y50861D01*
X55838Y50804D01*
X55940Y50751D01*
X56043Y50701D01*
X56148Y50654D01*
X56255Y50611D01*
X56363Y50571D01*
X56472Y50535D01*
X56582Y50503D01*
X56694Y50475D01*
X56806Y50450D01*
X56919Y50429D01*
X57033Y50412D01*
X57147Y50398D01*
X57261Y50389D01*
X57376Y50383D01*
X57491Y50381D01*
X50700Y50381D02*
X48551Y50381D01*
X48460Y50383D01*
X48369Y50389D01*
X48278Y50398D01*
X48188Y50412D01*
X48098Y50429D01*
X48009Y50450D01*
X47922Y50475D01*
X47835Y50504D01*
X47750Y50536D01*
X47666Y50572D01*
X47584Y50611D01*
X47503Y50654D01*
X47424Y50700D01*
X47348Y50750D01*
X47273Y50802D01*
X47201Y50858D01*
X47131Y50917D01*
X47064Y50979D01*
X47000Y51043D01*
X46938Y51110D01*
X46879Y51180D01*
X46823Y51252D01*
X46771Y51327D01*
X46721Y51403D01*
X46675Y51482D01*
X46632Y51563D01*
X46593Y51645D01*
X46557Y51729D01*
X46525Y51814D01*
X46496Y51901D01*
X46471Y51988D01*
X46450Y52077D01*
X46433Y52167D01*
X46419Y52257D01*
X46410Y52348D01*
X46404Y52439D01*
X46402Y52530D01*
X46404Y52621D01*
X46410Y52712D01*
X46419Y52803D01*
X46433Y52893D01*
X46450Y52983D01*
X46471Y53072D01*
X46496Y53159D01*
X46525Y53246D01*
X46557Y53331D01*
X46593Y53415D01*
X46632Y53497D01*
X46675Y53578D01*
X46721Y53657D01*
X46771Y53733D01*
X46823Y53808D01*
X46879Y53880D01*
X46938Y53950D01*
X47000Y54017D01*
X47064Y54081D01*
X47131Y54143D01*
X47201Y54202D01*
X47273Y54258D01*
X47348Y54310D01*
X47424Y54360D01*
X47503Y54406D01*
X47584Y54449D01*
X47666Y54488D01*
X47750Y54524D01*
X47835Y54556D01*
X47922Y54585D01*
X48009Y54610D01*
X48098Y54631D01*
X48188Y54648D01*
X48278Y54662D01*
X48369Y54671D01*
X48460Y54677D01*
X48551Y54679D01*
X48121Y58119D02*
X50700Y58119D01*
X48121Y58119D02*
X48039Y58117D01*
X47958Y58111D01*
X47876Y58101D01*
X47795Y58088D01*
X47715Y58071D01*
X47636Y58049D01*
X47558Y58024D01*
X47482Y57996D01*
X47406Y57964D01*
X47333Y57928D01*
X47261Y57889D01*
X47191Y57846D01*
X47123Y57800D01*
X47058Y57751D01*
X46995Y57699D01*
X46934Y57644D01*
X46876Y57586D01*
X46821Y57525D01*
X46769Y57462D01*
X46720Y57397D01*
X46674Y57329D01*
X46631Y57259D01*
X46592Y57187D01*
X46556Y57114D01*
X46524Y57038D01*
X46496Y56962D01*
X46471Y56884D01*
X46449Y56805D01*
X46432Y56725D01*
X46419Y56644D01*
X46409Y56562D01*
X46403Y56481D01*
X46401Y56399D01*
X46403Y56317D01*
X46409Y56236D01*
X46419Y56154D01*
X46432Y56073D01*
X46449Y55993D01*
X46471Y55914D01*
X46496Y55836D01*
X46524Y55760D01*
X46556Y55684D01*
X46592Y55611D01*
X46631Y55539D01*
X46674Y55469D01*
X46720Y55401D01*
X46769Y55336D01*
X46821Y55273D01*
X46876Y55212D01*
X46934Y55154D01*
X46995Y55099D01*
X47058Y55047D01*
X47123Y54998D01*
X47191Y54952D01*
X47261Y54909D01*
X47333Y54870D01*
X47406Y54834D01*
X47482Y54802D01*
X47558Y54774D01*
X47636Y54749D01*
X47715Y54727D01*
X47795Y54710D01*
X47876Y54697D01*
X47958Y54687D01*
X48039Y54681D01*
X48121Y54679D01*
X48121Y54680D02*
X49841Y54680D01*
X43050Y52530D02*
X43048Y52621D01*
X43042Y52712D01*
X43033Y52803D01*
X43019Y52893D01*
X43002Y52983D01*
X42981Y53072D01*
X42956Y53159D01*
X42927Y53246D01*
X42895Y53331D01*
X42859Y53415D01*
X42820Y53497D01*
X42777Y53578D01*
X42731Y53657D01*
X42681Y53733D01*
X42629Y53808D01*
X42573Y53880D01*
X42514Y53950D01*
X42452Y54017D01*
X42388Y54081D01*
X42321Y54143D01*
X42251Y54202D01*
X42179Y54258D01*
X42104Y54310D01*
X42028Y54360D01*
X41949Y54406D01*
X41868Y54449D01*
X41786Y54488D01*
X41702Y54524D01*
X41617Y54556D01*
X41530Y54585D01*
X41443Y54610D01*
X41354Y54631D01*
X41264Y54648D01*
X41174Y54662D01*
X41083Y54671D01*
X40992Y54677D01*
X40901Y54679D01*
X40810Y54677D01*
X40719Y54671D01*
X40628Y54662D01*
X40538Y54648D01*
X40448Y54631D01*
X40359Y54610D01*
X40272Y54585D01*
X40185Y54556D01*
X40100Y54524D01*
X40016Y54488D01*
X39934Y54449D01*
X39853Y54406D01*
X39774Y54360D01*
X39698Y54310D01*
X39623Y54258D01*
X39551Y54202D01*
X39481Y54143D01*
X39414Y54081D01*
X39350Y54017D01*
X39288Y53950D01*
X39229Y53880D01*
X39173Y53808D01*
X39121Y53733D01*
X39071Y53657D01*
X39025Y53578D01*
X38982Y53497D01*
X38943Y53415D01*
X38907Y53331D01*
X38875Y53246D01*
X38846Y53159D01*
X38821Y53072D01*
X38800Y52983D01*
X38783Y52893D01*
X38769Y52803D01*
X38760Y52712D01*
X38754Y52621D01*
X38752Y52530D01*
X38754Y52439D01*
X38760Y52348D01*
X38769Y52257D01*
X38783Y52167D01*
X38800Y52077D01*
X38821Y51988D01*
X38846Y51901D01*
X38875Y51814D01*
X38907Y51729D01*
X38943Y51645D01*
X38982Y51563D01*
X39025Y51482D01*
X39071Y51403D01*
X39121Y51327D01*
X39173Y51252D01*
X39229Y51180D01*
X39288Y51110D01*
X39350Y51043D01*
X39414Y50979D01*
X39481Y50917D01*
X39551Y50858D01*
X39623Y50802D01*
X39698Y50750D01*
X39774Y50700D01*
X39853Y50654D01*
X39934Y50611D01*
X40016Y50572D01*
X40100Y50536D01*
X40185Y50504D01*
X40272Y50475D01*
X40359Y50450D01*
X40448Y50429D01*
X40538Y50412D01*
X40628Y50398D01*
X40719Y50389D01*
X40810Y50383D01*
X40901Y50381D01*
X40992Y50383D01*
X41083Y50389D01*
X41174Y50398D01*
X41264Y50412D01*
X41354Y50429D01*
X41443Y50450D01*
X41530Y50475D01*
X41617Y50504D01*
X41702Y50536D01*
X41786Y50572D01*
X41868Y50611D01*
X41949Y50654D01*
X42028Y50700D01*
X42104Y50750D01*
X42179Y50802D01*
X42251Y50858D01*
X42321Y50917D01*
X42388Y50979D01*
X42452Y51043D01*
X42514Y51110D01*
X42573Y51180D01*
X42629Y51252D01*
X42681Y51327D01*
X42731Y51403D01*
X42777Y51482D01*
X42820Y51563D01*
X42859Y51645D01*
X42895Y51729D01*
X42927Y51814D01*
X42956Y51901D01*
X42981Y51988D01*
X43002Y52077D01*
X43019Y52167D01*
X43033Y52257D01*
X43042Y52348D01*
X43048Y52439D01*
X43050Y52530D01*
X42621Y56399D02*
X42619Y56481D01*
X42613Y56562D01*
X42603Y56644D01*
X42590Y56725D01*
X42573Y56805D01*
X42551Y56884D01*
X42526Y56962D01*
X42498Y57038D01*
X42466Y57114D01*
X42430Y57187D01*
X42391Y57259D01*
X42348Y57329D01*
X42302Y57397D01*
X42253Y57462D01*
X42201Y57525D01*
X42146Y57586D01*
X42088Y57644D01*
X42027Y57699D01*
X41964Y57751D01*
X41899Y57800D01*
X41831Y57846D01*
X41761Y57889D01*
X41689Y57928D01*
X41616Y57964D01*
X41540Y57996D01*
X41464Y58024D01*
X41386Y58049D01*
X41307Y58071D01*
X41227Y58088D01*
X41146Y58101D01*
X41064Y58111D01*
X40983Y58117D01*
X40901Y58119D01*
X40819Y58117D01*
X40738Y58111D01*
X40656Y58101D01*
X40575Y58088D01*
X40495Y58071D01*
X40416Y58049D01*
X40338Y58024D01*
X40262Y57996D01*
X40186Y57964D01*
X40113Y57928D01*
X40041Y57889D01*
X39971Y57846D01*
X39903Y57800D01*
X39838Y57751D01*
X39775Y57699D01*
X39714Y57644D01*
X39656Y57586D01*
X39601Y57525D01*
X39549Y57462D01*
X39500Y57397D01*
X39454Y57329D01*
X39411Y57259D01*
X39372Y57187D01*
X39336Y57114D01*
X39304Y57038D01*
X39276Y56962D01*
X39251Y56884D01*
X39229Y56805D01*
X39212Y56725D01*
X39199Y56644D01*
X39189Y56562D01*
X39183Y56481D01*
X39181Y56399D01*
X39183Y56317D01*
X39189Y56236D01*
X39199Y56154D01*
X39212Y56073D01*
X39229Y55993D01*
X39251Y55914D01*
X39276Y55836D01*
X39304Y55760D01*
X39336Y55684D01*
X39372Y55611D01*
X39411Y55539D01*
X39454Y55469D01*
X39500Y55401D01*
X39549Y55336D01*
X39601Y55273D01*
X39656Y55212D01*
X39714Y55154D01*
X39775Y55099D01*
X39838Y55047D01*
X39903Y54998D01*
X39971Y54952D01*
X40041Y54909D01*
X40113Y54870D01*
X40186Y54834D01*
X40262Y54802D01*
X40338Y54774D01*
X40416Y54749D01*
X40495Y54727D01*
X40575Y54710D01*
X40656Y54697D01*
X40738Y54687D01*
X40819Y54681D01*
X40901Y54679D01*
X40983Y54681D01*
X41064Y54687D01*
X41146Y54697D01*
X41227Y54710D01*
X41307Y54727D01*
X41386Y54749D01*
X41464Y54774D01*
X41540Y54802D01*
X41616Y54834D01*
X41689Y54870D01*
X41761Y54909D01*
X41831Y54952D01*
X41899Y54998D01*
X41964Y55047D01*
X42027Y55099D01*
X42088Y55154D01*
X42146Y55212D01*
X42201Y55273D01*
X42253Y55336D01*
X42302Y55401D01*
X42348Y55469D01*
X42391Y55539D01*
X42430Y55611D01*
X42466Y55684D01*
X42498Y55760D01*
X42526Y55836D01*
X42551Y55914D01*
X42573Y55993D01*
X42590Y56073D01*
X42603Y56154D01*
X42613Y56236D01*
X42619Y56317D01*
X42621Y56399D01*
M02*
